<svg id="Layer_2" data-name="Layer 2" xmlns="http://www.w3.org/2000/svg" viewBox="0 0 1057.866 683.024" style="width: 100%; height: 100%;">
  <g id="Layer_2-2" data-name="Layer 2">
    <g>
      <g>
        <rect x="920.892" y="449.209" width="2" height="225.684" transform="translate(-55.671 103.623) rotate(-6.245)" fill="#292a2e"></rect>
        <rect x="909.104" y="606.551" width="120.09" height="2" transform="translate(267.214 1510.687) rotate(-84.228)" fill="#292a2e"></rect>
        <rect x="905.346" y="652.751" width="89.616" height="29.083" fill="#292a2e"></rect>
        <rect x="905.346" y="652.751" width="89.616" height="29.083" fill="#fff" opacity=".2"></rect>
        <ellipse cx="1000.171" cy="562.475" rx="51.126" ry="61.09" transform="translate(-50.623 1023.508) rotate(-53.042)" fill="#000000"></ellipse>
        <ellipse cx="1000.171" cy="562.475" rx="51.126" ry="61.09" transform="translate(-50.623 1023.508) rotate(-53.042)" fill="#fff" opacity=".2"></ellipse>
        <path d="m1048.984,599.204c-1.155,1.539-2.399,2.98-3.723,4.314-18.687,11.939-46.271,10.06-68.154-6.408-26.957-20.281-35.048-55.015-18.07-77.578,1.155-1.539,2.398-2.971,3.714-4.314,18.697-11.948,46.271-10.06,68.163,6.399,26.957,20.289,35.048,55.024,18.07,77.587Z" fill="#fff" opacity=".5"></path>
        <ellipse cx="891.778" cy="471.949" rx="61.09" ry="52.607" transform="translate(-102.531 643.279) rotate(-37.665)" fill="#000000"></ellipse>
        <path d="m915.46,507.682c-20.683,15.976-46.969,18.41-66.024,8.01-2.175-1.915-4.189-4.054-6.015-6.417-17.757-22.992-10.498-58.354,16.208-78.965,20.684-15.967,46.97-18.41,66.015-8.019,2.184,1.915,4.197,4.063,6.023,6.426,17.757,22.992,10.498,58.354-16.208,78.965Z" fill="#fff" opacity=".2"></path>
      </g>
      <g>
        <polygon points="741.237 323.17 1048.415 323.624 1048.415 209.915 741.237 209.915 741.237 323.17" fill="#efefef"></polygon>
        <path d="m1021.967,241.453h-254.282c-.519,0-.939-.42-.939-.939s.42-.939.939-.939h254.282c.519,0,.939.42.939.939s-.42.939-.939.939Z" fill="#fff"></path>
        <path d="m1021.967,269.615h-254.282c-.519,0-.939-.42-.939-.939s.42-.939.939-.939h254.282c.519,0,.939.42.939.939s-.42.939-.939.939Z" fill="#fff"></path>
        <path d="m1021.967,297.778h-151.019c-.519,0-.939-.42-.939-.939s.42-.939.939-.939h151.019c.519,0,.939.42.939.939s-.42.939-.939.939Z" fill="#fff"></path>
      </g>
      <g>
        <polygon points="408.863 148.442 37.13 148.533 37.158 0 408.863 0 408.863 148.442" fill="#efefef"></polygon>
        <path d="m381.101,32.866H64.92c-.413,0-.747-.334-.747-.747s.334-.747.747-.747h316.181c.413,0,.747.334.747.747s-.334.747-.747.747Z" fill="#fff"></path>
        <path d="m381.101,62.428H64.92c-.413,0-.747-.334-.747-.747s.334-.747.747-.747h316.181c.413,0,.747.334.747.747s-.334.747-.747.747Z" fill="#fff"></path>
        <path d="m381.101,91.989H64.92c-.413,0-.747-.334-.747-.747s.334-.747.747-.747h316.181c.413,0,.747.334.747.747s-.334.747-.747.747Z" fill="#fff"></path>
        <path d="m223.439,121.551H64.92c-.413,0-.747-.334-.747-.747s.334-.747.747-.747h158.519c.413,0,.747.334.747.747s-.334.747-.747.747Z" fill="#fff"></path>
      </g>
      <g>
        <g>
          <g>
            <rect x="174.814" y="65.343" width="734.688" height="553.975" rx="30" ry="30" fill="#fff"></rect>
            <path d="m879.502,620.318H204.814c-17.093,0-31-13.907-31-31V95.343c0-17.093,13.907-31,31-31h674.688c17.094,0,31,13.907,31,31v493.975c0,17.093-13.906,31-31,31ZM204.814,66.343c-15.991,0-29,13.009-29,29v493.975c0,15.991,13.009,29,29,29h674.688c15.99,0,29-13.009,29-29V95.343c0-15.991-13.01-29-29-29H204.814Z" fill="#292a2e"></path>
          </g>
          <path d="m909.502,95.339v30.188H174.817v-30.188c0-16.569,13.431-30,30-30h674.684c16.569,0,30,13.431,30,30Z" fill="#292a2e"></path>
        </g>
        <rect x="357.936" y="369.424" width="158.301" height="49.646" rx="24.823" ry="24.823" fill="#000000" opacity=".2"></rect>
        <rect x="566.631" y="369.424" width="158.301" height="49.646" rx="24.823" ry="24.823" fill="#000000" opacity=".2"></rect>
        <path d="m836.934,258.509c0,13.17-5.33,25.08-13.96,33.71-8.63,8.62-20.54,13.96-33.7,13.96h-475.36c-26.33,0-47.67-21.34-47.67-47.67,0-13.16,5.34-25.07,13.96-33.7,8.63-8.63,20.54-13.96,33.71-13.96h475.36c26.32,0,47.66,21.34,47.66,47.66Z" fill="#000000" opacity=".1"></path>
        <path d="m836.934,258.509c0,13.17-5.33,25.08-13.96,33.71-8.63,8.62-20.54,13.96-33.7,13.96h-73.84v-95.33h73.84c26.32,0,47.66,21.34,47.66,47.66Z" fill="#000000"></path>
        <g>
          <path d="m332.67,273.482l-4.839-15.479c-.305-.947-.875-3.097-1.709-6.452h-.193c-.642,2.809-1.204,4.975-1.685,6.5l-4.983,15.431h-4.622l-7.198-26.385h4.189c1.701,6.628,2.997,11.676,3.888,15.142.891,3.467,1.4,5.802,1.529,7.006h.192c.177-.915.461-2.098.855-3.551.393-1.452.734-2.604,1.023-3.455l4.839-15.142h4.333l4.718,15.142c.899,2.761,1.508,5.08,1.83,6.957h.193c.064-.578.236-1.468.518-2.672.281-1.204,1.954-7.68,5.019-19.427h4.141l-7.295,26.385h-4.742Z" fill="#0a0a0a"></path>
          <path d="m372.991,273.482l-4.839-15.479c-.305-.947-.875-3.097-1.709-6.452h-.193c-.642,2.809-1.204,4.975-1.685,6.5l-4.983,15.431h-4.622l-7.198-26.385h4.189c1.701,6.628,2.997,11.676,3.888,15.142.891,3.467,1.4,5.802,1.529,7.006h.192c.177-.915.461-2.098.855-3.551.393-1.452.734-2.604,1.023-3.455l4.839-15.142h4.333l4.718,15.142c.899,2.761,1.508,5.08,1.83,6.957h.193c.064-.578.236-1.468.518-2.672.281-1.204,1.954-7.68,5.019-19.427h4.141l-7.295,26.385h-4.742Z" fill="#0a0a0a"></path>
          <path d="m413.313,273.482l-4.839-15.479c-.305-.947-.875-3.097-1.709-6.452h-.193c-.642,2.809-1.204,4.975-1.685,6.5l-4.983,15.431h-4.622l-7.198-26.385h4.189c1.701,6.628,2.997,11.676,3.888,15.142.891,3.467,1.4,5.802,1.529,7.006h.192c.177-.915.461-2.098.855-3.551.393-1.452.734-2.604,1.023-3.455l4.839-15.142h4.333l4.718,15.142c.899,2.761,1.508,5.08,1.83,6.957h.193c.064-.578.236-1.468.518-2.672.281-1.204,1.954-7.68,5.019-19.427h4.141l-7.295,26.385h-4.742Z" fill="#0a0a0a"></path>
        </g>
        <g>
          <path d="m764.693,271.768c-7.484,0-14.846-3.573-19.374-10.208-3.526-5.166-4.829-11.396-3.669-17.542,1.159-6.146,4.644-11.473,9.81-14.998,5.165-3.525,11.395-4.828,17.542-3.669,6.146,1.16,11.473,4.644,14.998,9.81s4.828,11.396,3.668,17.542c-1.159,6.146-4.644,11.473-9.81,14.998-4.029,2.75-8.619,4.067-13.165,4.067Zm-.072-41.828c-3.668,0-7.248,1.098-10.343,3.21-4.062,2.773-6.803,6.962-7.715,11.795s.112,9.733,2.885,13.796c5.725,8.387,17.206,10.552,25.592,4.83,4.062-2.773,6.803-6.962,7.715-11.795s-.112-9.733-2.885-13.796c-2.773-4.063-6.962-6.803-11.796-7.715-1.151-.217-2.307-.325-3.453-.325Z" fill="#fff"></path>
          <path d="m799.194,292.078c-.714,0-1.423-.304-1.917-.894l-20.849-24.877c-.887-1.059-.748-2.635.311-3.522,1.058-.887,2.636-.747,3.521.31l20.849,24.877c.887,1.059.748,2.635-.311,3.522-.468.393-1.038.584-1.604.584Z" fill="#fff"></path>
        </g>
      </g>
      <g>
        <path d="m37.495,628.937c-11.469,0-22.402-5.265-29.552-14.422-7.99-10.232-10.119-23.87-5.627-36.051,2.122-5.755,52.074-141.224,61.544-165.633l69.922,27.127c-5.325,13.725-24.618,65.745-40.118,107.651l25.75-2.799,8.105,74.561-85.966,9.346c-1.356.147-2.711.22-4.058.22Z" fill="#000000"></path>
        <polygon points="82.435 625.107 71 682.024 293.099 682.024 280.306 624.024 82.435 625.107" fill="#262626"></polygon>
        <path id="b_1_b" d="m130.456,370.744c-18.556,1.377-37.477,7.406-51.409,19.74-21.015,18.603-19.145,30.23-8.654,81.744,9.026,44.325,5.446,63.694,11.484,145.486.178,2.41.559,7.393.559,7.393l198.502-.329s18.598-108.517,28.869-158.568c7.809-38.051,28.32-84.244-58.164-93.553-.23-.025-69.593-5.74-121.187-1.912Z" fill="#000000"></path>
        <g>
          <path d="m537.007,329.711c-4.078,0-8.219-.564-12.329-1.749-11.442-3.298-20.914-10.854-26.673-21.277-5.758-10.422-7.113-22.463-3.815-33.905,3.298-11.442,10.854-20.914,21.276-26.673,10.423-5.759,22.463-7.112,33.905-3.815,11.441,3.297,20.914,10.854,26.673,21.276,5.758,10.422,7.113,22.463,3.815,33.905h0c-5.624,19.509-23.495,32.237-42.854,32.237Zm-.031-79.179c-5.772,0-11.481,1.46-16.673,4.328-8.084,4.467-13.945,11.814-16.504,20.689-2.558,8.875-1.507,18.215,2.959,26.299,4.467,8.085,11.814,13.946,20.689,16.504,18.321,5.279,37.522-5.328,42.803-23.649,2.559-8.875,1.507-18.215-2.959-26.299-4.467-8.085-11.814-13.946-20.689-16.504-3.176-.915-6.412-1.369-9.627-1.369Z" fill="#0a0a0a"></path>
          <path d="m499.359,384.657c-.616,0-1.243-.114-1.85-.356-2.565-1.022-3.816-3.931-2.793-6.496l22.742-57.057c1.022-2.565,3.932-3.818,6.496-2.793,2.565,1.022,3.816,3.931,2.793,6.496l-22.742,57.058c-.78,1.958-2.66,3.149-4.646,3.149Z" fill="#0a0a0a"></path>
        </g>
        <g>
          <path d="m481.948,378.397l13.946-31.283c1.284-2.88,4.771-4.089,7.591-2.526,2.5,1.385,3.358,4.586,2.194,7.196l-2.99,6.708,19.086-16.778c2.09-1.902,5.87-2.9,7.85-.416,1.733,1.903,1.852,4.702.445,6.731.021.018.047.029.063.052.015.016.02.037.032.054l3.222-2.934c2.485-2.262,6.5-1.782,8.328,1.266,1.339,2.232.744,5.131-1.18,6.884l-1.371,1.249c.018.057.026.115.023.174,2.251-1.262,5.182-.783,6.887,1.355,1.809,2.266,1.358,5.602-.786,7.554l-3.405,3.1c.155-.017.315.031.43.157.066.075.096.164.11.256,2.234-.542,4.73.354,6.028,2.634,1.264,2.22.64,5.048-1.248,6.768l-28.736,26.161c-8.224,7.487-20.168,9.235-30.192,4.42h0c-8.786-4.221-12.619-14.665-8.651-23.567l2.324-5.213Z" fill="#ff9e85"></path>
          <g fill="none" opacity=".2">
            <path d="m511.26,364.729c.184.199.494.216.698.036l18.131-15.979c.207-.183.227-.498.044-.706-.156-.208-.499-.227-.706-.044l-18.131,15.979c-.207.183-.227.498-.044.706l.008.009Z" fill="#0c0c0c"></path>
          </g>
          <g fill="none" opacity=".2">
            <path d="m518.087,372.92c.184.199.494.216.698.036l20.234-17.833c.207-.183.227-.498.044-.706-.168-.188-.499-.227-.706-.044l-20.234,17.833c-.207.183-.227.498-.044.706l.008.009Z" fill="#0c0c0c"></path>
          </g>
          <g fill="none" opacity=".2">
            <path d="m525.43,381.834c.184.199.494.216.698.036l16.14-14.224c.207-.183.227-.498.044-.706-.189-.205-.499-.227-.706-.044l-16.14,14.224c-.207.183-.227.498-.044.706l.008.009Z" fill="#0c0c0c"></path>
          </g>
        </g>
        <path d="m473.231,368.24l-84.557,95.221-85.443-73.922-49.071,56.719,113.431,98.136.765.661c.264.227.533.45.805.671,15.743,12.738,38.832,10.302,51.57-5.441l103.928-128.446-51.427-43.6Z" fill="#000000"></path>
        <g>
          <path id="h_3_sk" d="m251.64,372.66c-.23-.03-6.53,23.68-55.7,19.99-34.04-2.55-42.34-25.72-43.12-25.72,3.67-.78,9.63-1.59,11.26-2.46,5.36-2.88,9.265-6.386,11.23-13.91,1.537-5.884,2.32-28.536,2.32-39.9l52.38,11.77c-.73,12.82-5.84,42.54,12.07,47.8,2.98.87,6.19,1.67,9.56,2.43Z" fill="#ff9e85"></path>
          <path d="m228.197,347.634c-20.65,1.629-47.176-7.089-52.214-34.639l-4.546-24.859c-5.039-27.55,5.347-52.53,31.287-57.274h0c25.94-4.744,49.413,14.044,54.451,41.594l2.013,11.005c1.933,10.571,5.852,61.266-30.99,64.173Z" fill="#ff9e85"></path>
          <path d="m247.344,322.339c-3.707-18.624-5.406-31.049-5.209-44.158,5.221-9.158,3.848-19.668,2.661-24.21,5.117,2.791,7.257,3.096,12.073,3.096,0,0-8.634-34.651-37.98-43.975-5.396-2.1-19.174-4.753-37.468-2.244-15.56,2.134-53.916,13.768-59.395,56.95h-.002s0,.012-.001.025c-.181,1.432-3.864,41.218-11.206,60.307-9.87,25.661-23.727,33.634-23.376,63.242.452,38.084,70.466,43.153,112.696,40.304,42.23-2.849,65.803-16.734,66.109-44.18.342-30.751-11.484-27.895-18.9-65.156Z" fill="#0a0a0a"></path>
          <path d="m247.356,306.728c-7.883,1.442-15.816-5.823-17.257-13.706-1.442-7.883,4.154-13.399,12.037-14.841l5.221,28.547Z" fill="#ff9e85"></path>
        </g>
        <path d="m305.061,490.795c-.031,0-.062-.003-.093-.009-.271-.051-.45-.312-.398-.584l5.031-26.662c.052-.271.316-.448.584-.398.271.051.45.312.398.584l-5.031,26.662c-.045.24-.255.407-.491.407Z" fill="#0c0c0c"></path>
        <path d="m82.435,625.607c-.267,0-.489-.211-.499-.48l-6.221-161.475c-.011-.276.204-.509.48-.52.263.013.508.204.519.48l6.221,161.475c.011.276-.204.509-.48.52h-.02Z" fill="#0c0c0c"></path>
        <path d="m382.997,471.665c-.103,0-.207-.031-.296-.098-.223-.164-.27-.477-.106-.699l5.677-7.704c.163-.223.478-.271.699-.105.223.164.27.477.106.699l-5.677,7.704c-.098.133-.25.203-.403.203Z" fill="#0c0c0c"></path>
      </g>
      <path d="m22.765,683.024h999.64c.552,0,1-.448,1-1,0-.552-.448-1-1-1H22.765c-.552,0-1,.448-1,1,0,.552.448,1,1,1Z" fill="#292a2e"></path>
    </g>
  </g>
</svg>