<svg id="Layer_2" data-name="Layer 2" xmlns="http://www.w3.org/2000/svg" viewBox="0 0 962.119 964.861" style="width: 100%; height: 100%;">
  <g id="Layer_2-2" data-name="Layer 2">
    <g>
      <g>
        <g>
          <rect x="528.194" y="637.627" width="269.558" height="162.035" rx="17.318" ry="17.318" fill="#fff"></rect>
          <rect x="528.194" y="637.627" width="269.558" height="162.035" rx="17.318" ry="17.318" fill="#000000" opacity=".1"></rect>
        </g>
        <g>
          <rect id="gra19_b" x="700.407" y="724.509" width="25.387" height="50.692" rx="2.293" ry="2.293" fill="#fff"></rect>
          <rect id="gra19_b-2" data-name="gra19_b" x="750.534" y="685.085" width="25.387" height="90.116" rx="2.293" ry="2.293" fill="#fff"></rect>
          <rect id="gra19_b-3" data-name="gra19_b" x="550.024" y="724.509" width="25.387" height="50.692" rx="2.293" ry="2.293" fill="#fff"></rect>
          <rect id="gra19_b-4" data-name="gra19_b" x="600.152" y="667.159" width="25.387" height="108.042" rx="2.293" ry="2.293" fill="#fff"></rect>
          <rect id="gra19_b-5" data-name="gra19_b" x="650.279" y="713.147" width="25.387" height="62.054" rx="2.293" ry="2.293" fill="#fff"></rect>
        </g>
      </g>
      <g>
        <g>
          <rect x="37.493" y="538.525" width="342.119" height="205.652" rx="21.98" ry="21.98" fill="#fff"></rect>
          <rect x="37.493" y="538.525" width="342.119" height="205.652" rx="21.98" ry="21.98" fill="#000000" opacity=".1"></rect>
        </g>
        <g>
          <rect id="gra19_b-6" data-name="gra19_b" x="256.063" y="648.795" width="32.221" height="64.337" rx="2.91" ry="2.91" fill="#fff"></rect>
          <rect id="gra19_b-7" data-name="gra19_b" x="319.684" y="598.759" width="32.221" height="114.374" rx="2.91" ry="2.91" fill="#fff"></rect>
          <rect id="gra19_b-8" data-name="gra19_b" x="65.199" y="648.795" width="32.221" height="64.337" rx="2.91" ry="2.91" fill="#fff"></rect>
          <rect id="gra19_b-9" data-name="gra19_b" x="128.82" y="576.008" width="32.221" height="137.124" rx="2.91" ry="2.91" fill="#fff"></rect>
          <rect id="gra19_b-10" data-name="gra19_b" x="192.442" y="634.374" width="32.221" height="78.758" rx="2.91" ry="2.91" fill="#fff"></rect>
        </g>
      </g>
      <g>
        <g>
          <rect x="555.245" width="392.921" height="236.191" rx="25.244" ry="25.244" fill="#fff"></rect>
          <rect x="555.245" width="392.921" height="236.191" rx="25.244" ry="25.244" fill="#000000" opacity=".1"></rect>
        </g>
        <g>
          <rect id="gra19_b-11" data-name="gra19_b" x="806.272" y="126.645" width="37.005" height="73.891" rx="3.342" ry="3.342" fill="#fff"></rect>
          <rect id="gra19_b-12" data-name="gra19_b" x="879.34" y="69.178" width="37.005" height="131.358" rx="3.342" ry="3.342" fill="#fff"></rect>
          <rect id="gra19_b-13" data-name="gra19_b" x="587.066" y="126.645" width="37.005" height="73.891" rx="3.342" ry="3.342" fill="#fff"></rect>
          <rect id="gra19_b-14" data-name="gra19_b" x="660.135" y="43.049" width="37.005" height="157.487" rx="3.342" ry="3.342" fill="#fff"></rect>
          <rect id="gra19_b-15" data-name="gra19_b" x="733.203" y="110.082" width="37.005" height="90.453" rx="3.342" ry="3.342" fill="#fff"></rect>
        </g>
      </g>
      <g>
        <g>
          <rect x="0" y="194.948" width="191.676" height="115.219" rx="12.314" ry="12.314" fill="#fff"></rect>
          <rect x="0" y="194.948" width="191.676" height="115.219" rx="12.314" ry="12.314" fill="#000000" opacity=".3"></rect>
        </g>
        <g>
          <rect id="gra19_b-16" data-name="gra19_b" x="122.457" y="256.728" width="18.052" height="36.046" rx="1.63" ry="1.63" fill="#fff"></rect>
          <rect id="gra19_b-17" data-name="gra19_b" x="158.101" y="228.694" width="18.052" height="64.079" rx="1.63" ry="1.63" fill="#fff"></rect>
          <rect id="gra19_b-18" data-name="gra19_b" x="15.523" y="256.728" width="18.052" height="36.046" rx="1.63" ry="1.63" fill="#fff"></rect>
          <rect id="gra19_b-19" data-name="gra19_b" x="51.168" y="215.948" width="18.052" height="76.826" rx="1.63" ry="1.63" fill="#fff"></rect>
          <rect id="gra19_b-20" data-name="gra19_b" x="86.812" y="248.648" width="18.052" height="44.125" rx="1.63" ry="1.63" fill="#fff"></rect>
        </g>
      </g>
      <g>
        <rect x="129.258" y="49.362" width="734.688" height="553.975" rx="30" ry="30" transform="translate(993.205 652.699) rotate(-180)" fill="#fff"></rect>
        <path d="m128.258,573.337V79.362c0-17.093,13.906-31,31-31h674.688c17.093,0,31,13.907,31,31v493.975c0,17.093-13.907,31-31,31H159.258c-17.094,0-31-13.907-31-31ZM159.258,50.362c-15.99,0-29,13.009-29,29v493.975c0,15.991,13.01,29,29,29h674.688c15.991,0,29-13.009,29-29V79.362c0-15.991-13.009-29-29-29H159.258Z" fill="#292a2e"></path>
        <path d="m129.259,79.359v30.188s734.684,0,734.684,0v-30.188c0-16.569-13.431-30-30-30H159.259c-16.569,0-30,13.431-30,30Z" fill="#292a2e"></path>
        <g>
          <rect x="525.259" y="138.231" width="311.714" height="227.954" rx="12.723" ry="12.723" fill="#fff"></rect>
          <rect x="525.259" y="138.231" width="311.714" height="227.954" rx="12.723" ry="12.723" fill="#000000" opacity=".15"></rect>
          <g>
            <rect id="grp6_b" x="554.388" y="166.676" width="28.903" height="171.064" rx="2.081" ry="2.081" fill="#000000"></rect>
            <path id="grp6_b-2" data-name="grp6_b" d="m554.388,250.529h28.903v85.13c0,1.149-.933,2.081-2.081,2.081h-24.741c-1.149,0-2.081-.933-2.081-2.081v-85.13h0Z" fill="#000000" opacity=".6"></path>
          </g>
          <g>
            <rect id="grp6_b-3" data-name="grp6_b" x="610.526" y="166.676" width="28.903" height="171.064" rx="2.081" ry="2.081" fill="#000000"></rect>
            <path id="grp6_b-4" data-name="grp6_b" d="m610.526,226.82h28.903v108.838c0,1.149-.933,2.081-2.081,2.081h-24.741c-1.149,0-2.081-.933-2.081-2.081v-108.838h0Z" fill="#000000" opacity=".6"></path>
          </g>
          <g>
            <rect id="grp6_b-5" data-name="grp6_b" x="778.941" y="166.676" width="28.903" height="171.064" rx="2.081" ry="2.081" fill="#000000"></rect>
            <path id="grp6_b-6" data-name="grp6_b" d="m778.941,202.898h28.903v132.76c0,1.149-.933,2.081-2.081,2.081h-24.741c-1.149,0-2.081-.933-2.081-2.081v-132.76h0Z" fill="#000000" opacity=".6"></path>
          </g>
          <g>
            <rect id="grp6_b-7" data-name="grp6_b" x="666.665" y="166.676" width="28.903" height="171.064" rx="2.081" ry="2.081" fill="#000000"></rect>
            <path id="grp6_b-8" data-name="grp6_b" d="m666.665,288.876h28.903v46.783c0,1.149-.933,2.081-2.081,2.081h-24.741c-1.149,0-2.081-.933-2.081-2.081v-46.783h0Z" fill="#000000" opacity=".6"></path>
          </g>
          <g>
            <rect id="grp6_b-9" data-name="grp6_b" x="722.803" y="166.676" width="28.903" height="171.064" rx="2.081" ry="2.081" fill="#000000"></rect>
            <path id="grp6_b-10" data-name="grp6_b" d="m722.803,258.984h28.903v76.674c0,1.149-.933,2.081-2.081,2.081h-24.741c-1.149,0-2.081-.933-2.081-2.081v-76.674h0Z" fill="#000000" opacity=".6"></path>
          </g>
        </g>
        <g>
          <rect x="521.815" y="388.498" width="315.158" height="187.357" rx="18.213" ry="18.213" fill="#000000" opacity=".15"></rect>
          <circle id="gra7_p" cx="710.338" cy="428.527" r="6.77" fill="#000000"></circle>
          <circle id="gra7_p-2" data-name="gra7_p" cx="710.338" cy="463.038" r="6.77" fill="#262626"></circle>
          <circle id="gra7_p-3" data-name="gra7_p" cx="710.338" cy="497.55" r="6.77" fill="#fff"></circle>
          <circle id="gra7_p-4" data-name="gra7_p" cx="710.338" cy="532.061" r="6.77" fill="#000000" opacity=".5"></circle>
          <path d="m804.289,428.524h0c0,2.115-1.715,3.83-3.83,3.83h-65.074c-1.854,0-3.558-1.243-3.921-3.06-.269-1.344.195-2.612,1.047-3.476.698-.688,1.659-1.123,2.712-1.123h65.237c2.115,0,3.83,1.715,3.83,3.83Z" fill="#fff"></path>
          <path d="m804.289,463.037h0c0,2.115-1.715,3.83-3.83,3.83h-65.034c-2.214,0-4.147-1.815-4.032-4.026.051-.982.474-1.866,1.118-2.511.698-.698,1.659-1.123,2.712-1.123h65.237c2.115,0,3.83,1.715,3.83,3.83Z" fill="#fff"></path>
          <path d="m804.289,497.55h0c0,2.115-1.715,3.83-3.83,3.83h-65.631c-1.9,0-3.44-1.54-3.44-3.44v-.779c0-1.9,1.54-3.44,3.44-3.44h65.631c2.115,0,3.83,1.715,3.83,3.83Z" fill="#fff"></path>
          <path d="m804.289,532.063h0c0,2.115-1.715,3.83-3.83,3.83h-65.057c-1.856,0-3.564-1.239-3.935-3.057-.275-1.349.189-2.625,1.044-3.48.698-.698,1.659-1.123,2.712-1.123h65.237c2.115,0,3.83,1.715,3.83,3.83Z" fill="#fff"></path>
          <g>
            <path d="m583.312,480.294c0,17.369,11.113,32.143,26.615,37.615l-10.944,26.688c-25.993-9.788-44.485-34.891-44.485-64.303,0-37.939,30.761-68.7,68.7-68.7v28.814c-22.024,0-39.886,17.854-39.886,39.886Z" fill="#000000"></path>
            <path d="m691.899,480.294h-28.814c0-22.032-17.862-39.886-39.886-39.886v-28.814c37.939,0,68.7,30.761,68.7,68.7Z" fill="#262626"></path>
            <path d="m691.899,480.294c0,32.693-22.841,60.052-53.424,66.995l-4.882-28.482c16.989-4.575,29.492-20.085,29.492-38.512h28.814Z" fill="#fff"></path>
            <path d="m638.474,547.288c-4.914,1.115-10.03,1.705-15.276,1.705-8.527,0-16.682-1.552-24.215-4.397l10.944-26.688c4.146,1.463,8.616,2.263,13.271,2.263,3.597,0,7.08-.477,10.394-1.366l4.882,28.482Z" fill="#000000" opacity=".5"></path>
          </g>
        </g>
        <g>
          <rect x="156.195" y="138.231" width="343.629" height="437.624" rx="18" ry="18" fill="#000000" opacity=".15"></rect>
          <path id="gra14_p" d="m420.981,309.027c0,55.761-45.203,100.964-100.964,100.964s-100.964-45.203-100.964-100.964,45.203-100.964,100.964-100.964v100.964h100.964Z" fill="#000000"></path>
          <path id="gra14_p-2" data-name="gra14_p" d="m433.36,295.912h-100.964v-100.964c55.761,0,100.964,45.203,100.964,100.964Z" fill="#000000" opacity=".6"></path>
          <circle id="gra7_p-5" data-name="gra7_p" cx="215.322" cy="460.497" r="6.77" fill="#000000" opacity=".6"></circle>
          <circle id="gra7_p-6" data-name="gra7_p" cx="215.322" cy="495.009" r="6.77" fill="#000000"></circle>
          <path d="m447.272,460.495h0c0,2.115-1.715,3.83-3.83,3.83h-203.074c-1.854,0-3.558-1.243-3.921-3.06-.269-1.344.195-2.612,1.047-3.476.698-.688,1.659-1.123,2.712-1.123h203.237c2.115,0,3.83,1.715,3.83,3.83Z" fill="#000000" opacity=".6"></path>
          <path d="m447.272,495.008h0c0,2.115-1.715,3.83-3.83,3.83h-203.034c-2.214,0-4.147-1.815-4.032-4.026.051-.982.474-1.866,1.118-2.511.698-.698,1.659-1.123,2.712-1.123h203.237c2.115,0,3.83,1.715,3.83,3.83Z" fill="#fff"></path>
        </g>
      </g>
      <g>
        <path d="m126.855,857.059c-.21,0-.421-.08-.581-.241-1.158-1.158-3.046-22.408-8.131-85.674-2.081-25.888-4.046-50.339-5.48-65.199-.102-1.061-.514-1.185-.649-1.225-1.963-.592-7.934,4.116-11.268,8.239-.285.353-.803.408-1.156.122-.353-.286-.408-.803-.122-1.156,2.205-2.726,9.389-9.872,13.019-8.779.732.22,1.64.857,1.813,2.642,1.435,14.873,3.401,39.331,5.482,65.226,3.09,38.446,6.591,82.002,7.741,84.745.232.321.203.772-.086,1.061-.161.161-.371.241-.581.241Z" fill="#000000"></path>
        <ellipse cx="95.95" cy="715.001" rx="31.654" ry="23.344" transform="translate(-426.11 217.119) rotate(-38.715)" fill="#000000"></ellipse>
        <ellipse cx="95.95" cy="715.001" rx="31.654" ry="23.344" transform="translate(-426.11 217.119) rotate(-38.715)" fill="#fff" opacity=".2"></ellipse>
        <path d="m75.075,737.354c-.092,0-.185-.031-.262-.095-.175-.145-.199-.404-.054-.579l38.875-46.879c.144-.174.403-.199.579-.054.175.145.199.404.054.579l-38.875,46.879c-.081.098-.198.149-.317.149Z" fill="#fff"></path>
        <path d="m135.334,847.009c-.09,0-.181-.015-.27-.046-.429-.149-.655-.617-.506-1.046l14.602-41.995c.876-2.52,2.948-4.398,5.541-5.024,2.595-.627,5.294.1,7.224,1.943l7.72,7.375c.328.313.34.834.026,1.162-.314.328-.834.34-1.162.026l-7.72-7.375c-1.523-1.455-3.654-2.029-5.702-1.534-2.047.494-3.682,1.977-4.374,3.966l-14.602,41.995c-.118.339-.436.552-.776.552Z" fill="#000000"></path>
        <ellipse cx="171.568" cy="806.642" rx="23.344" ry="31.654" transform="translate(-463.596 280.644) rotate(-38.363)" fill="#000000"></ellipse>
        <path d="m120.221,854.381c-.372,0-.708-.254-.799-.631l-24.505-102.461c-.347-1.453-1.421-2.531-2.872-2.886-1.451-.353-2.902.109-3.879,1.238l-7.554,8.729c-.297.343-.817.381-1.16.084-.343-.297-.381-.816-.084-1.16l7.554-8.729c1.369-1.581,3.48-2.255,5.512-1.76,2.031.496,3.595,2.067,4.082,4.101l24.505,102.461c.106.442-.167.885-.608.991-.064.015-.128.022-.192.022Z" fill="#000000"></path>
        <ellipse cx="88.177" cy="777.154" rx="31.654" ry="23.344" transform="translate(-692.637 731.621) rotate(-80.189)" fill="#000000"></ellipse>
        <path d="m126.856,857.059c-.034,0-.067-.002-.102-.006-.451-.056-.771-.466-.716-.916l15.648-127.051c.353-2.865,2.285-5.176,5.043-6.03,2.757-.854,5.658-.041,7.568,2.123l17.886,20.257c.301.34.268.86-.072,1.16-.34.301-.86.268-1.16-.072l-17.886-20.257c-1.477-1.673-3.718-2.301-5.849-1.641-2.131.66-3.625,2.446-3.897,4.66l-15.648,127.051c-.051.417-.406.722-.815.722Z" fill="#000000"></path>
        <ellipse cx="162.829" cy="741.372" rx="23.344" ry="31.654" transform="translate(-564.724 525.009) rotate(-61.051)" fill="#000000"></ellipse>
        <ellipse cx="171.568" cy="806.642" rx="23.344" ry="31.654" transform="translate(-463.596 280.644) rotate(-38.363)" fill="#fff" opacity=".2"></ellipse>
        <ellipse cx="88.177" cy="777.154" rx="31.654" ry="23.344" transform="translate(-692.637 731.621) rotate(-80.189)" fill="#fff" opacity=".5"></ellipse>
        <ellipse cx="162.829" cy="741.372" rx="23.344" ry="31.654" transform="translate(-564.724 525.009) rotate(-61.051)" fill="#fff" opacity=".5"></ellipse>
        <polygon points="146.87 964.861 106.84 964.861 100.207 836.786 153.503 836.786 146.87 964.861" fill="#292a2e"></polygon>
        <polygon points="146.87 964.861 106.84 964.861 100.207 836.786 153.503 836.786 146.87 964.861" fill="#fff" opacity=".3"></polygon>
        <path d="m191.215,831.873c-.122,0-.242-.053-.323-.156l-39.292-49.639c-.141-.178-.111-.437.067-.578.179-.141.437-.11.578.067l39.292,49.639c.141.178.111.437-.067.578-.076.06-.166.089-.255.089Z" fill="#fff"></path>
        <path d="m187.915,760.671c-.084,0-.169-.026-.242-.079l-50.281-36.714c-.183-.134-.224-.391-.09-.574.134-.183.391-.224.574-.09l50.281,36.714c.183.134.224.391.09.574-.081.11-.206.169-.332.169Z" fill="#fff"></path>
        <path d="m80.744,807.813c-.035,0-.071-.004-.106-.014-.219-.058-.35-.284-.291-.503l16.006-59.97c.059-.22.288-.349.503-.291.219.058.35.284.291.503l-16.006,59.97c-.049.184-.215.305-.397.305Z" fill="#fff"></path>
      </g>
      <path d="m897.468,964.861H77.049c-.388,0-.702-.314-.702-.702s.314-.702.702-.702h820.419c.388,0,.702.314.702.702s-.314.702-.702.702Z" fill="#292a2e"></path>
      <g>
        <g>
          <path d="m285.775,919.987s4.515,23.404,26.428,24.708c21.913,1.304,17.161,18.761,17.161,18.761h-83.739v-41.837s40.15-1.632,40.15-1.632Z" fill="#000000"></path>
          <path d="m239.946,493.057s6.263-7.036,6.207,8.924c-.207,59.529-4.224,432.943-4.224,432.943l55.026-.462,33.333-443.823-90.342,2.419Z" fill="#262626"></path>
          <path d="m379.736,919.987s4.515,23.404,26.428,24.708c21.913,1.304,17.161,18.761,17.161,18.761h-83.739v-41.837s40.15-1.632,40.15-1.632Z" fill="#000000"></path>
          <path d="m390.379,497.68s6.874,203.456,6.16,213.4l-6.464,222.303-54.117,1-8.726-231.343s-5.72-63.816-21.139-123.073c-7.912-30.406-12.613-61.557-14.168-92.938h0s98.454,10.651,98.454,10.651Z" fill="#262626"></path>
          <path d="m318.987,641.93l4.513-69.009s4.635,28.689,4.635,53.417c0,12.087-2.49,59.942-2.49,59.942l-6.658-44.35Z" fill="#0a0a0a"></path>
          <path d="m239.348,493.051l-.18.01s.13-3.47.18-.01Z" fill="#333"></path>
        </g>
        <g>
          <path d="m239.574,493.051l-.18.01s.13-3.47.18-.01Z" fill="#333"></path>
          <g>
            <path d="m541.1,327.913c-.726-1.423-2.205-2.099-3.628-1.921,0-.064-.001-.13-.04-.186-.071-.098-.181-.126-.291-.119l2.461-1.764c1.487-1.066,2.095-3.091,1.218-4.697-.909-1.666-2.871-2.268-4.497-1.591.006-.035-.017-.068-.022-.104l1.011-.725c1.399-1.003,2.003-2.868,1.282-4.431-.971-2.103-3.537-2.711-5.322-1.431l-2.333,1.672c-.007-.014,0-.03-.009-.043-.01-.017-.034-.017-.048-.032,1.08-1.216,1.222-3.054.234-4.431-1.101-1.772-3.644-1.41-5.152-.329l-13.732,9.486,2.455-4.132c.984-1.657.626-3.879-.978-4.949-1.71-1.141-4.003-.604-5.04,1.14l-13.402,22.563c-3.269,5.504-1.567,12.609,3.842,16.034h0c6.171,3.908,14.096,3.68,20.032-.575l20.738-14.864c1.368-.981,1.987-3.071,1.223-4.57Z" fill="#ff9e85"></path>
            <g fill="none" opacity=".25">
              <path d="m517.346,321.991c.105.144.306.178.453.077l13.048-9.037c.149-.103.186-.308.083-.457-.086-.148-.308-.186-.457-.083l-13.048,9.037c-.149.103-.186.308-.083.457l.005.006Z" fill="#0c0c0c"></path>
            </g>
            <g fill="none" opacity=".25">
              <path d="m521.173,327.856c.105.144.306.178.453.077l14.561-10.086c.149-.103.186-.308.083-.457-.095-.136-.308-.186-.457-.083l-14.561,10.086c-.149.103-.186.308-.083.457l.005.006Z" fill="#0c0c0c"></path>
            </g>
            <g fill="none" opacity=".25">
              <path d="m525.281,334.231c.105.144.306.178.453.077l11.616-8.045c.149-.103.186-.308.083-.457-.107-.148-.308-.186-.457-.083l-11.616,8.045c-.149.103-.186.308-.083.457l.005.006Z" fill="#0c0c0c"></path>
            </g>
          </g>
          <path d="m487.357,326.751l-39.359,67.032-48.025-62.992-39.883,35.957,68.111,88.211.446.628c2.375,3.262,5.515,6.044,9.328,8.049,13.306,6.998,29.766,1.884,36.763-11.423l55.968-101.354-43.35-24.108Z" fill="#000000"></path>
          <path d="m444.14,401.844c-.077,0-.154-.018-.228-.055-.246-.125-.344-.427-.218-.673l3.858-7.561c.125-.246.428-.343.673-.218.246.125.344.427.218.673l-3.858,7.561c-.088.173-.264.272-.445.272Z" fill="#0c0c0c"></path>
          <rect x="386.499" y="403.516" width="21.206" height="1" transform="translate(-28.765 777.588) rotate(-86.752)" fill="#0c0c0c"></rect>
          <g>
            <g>
              <path d="m266.978,246.894s.275,29.576-4.642,38.728c-14.155,26.348-17.576,46.527-.895,60.458,16.681,13.931,117.179,7.891,122.659-26.878,4.613-29.271-9.333-31.521-14.16-55.131-2.184-10.683-7.755-33.022-7.755-33.022" fill="#0a0a0a"></path>
              <path id="sk" d="m355.529,317.267c-.174-.024-2.404,31.956-39.551,28.815-25.716-2.171-34.634-29.561-35.224-29.566,2.78-.564,7.461-1.377,8.699-2.023,4.073-2.139,9.108-4.357,10.489-12.214.796-4.528-.262-27.744.174-32.33l39.419,9.19c-.643,9.687-4.719,32.119,8.784,36.223,2.247.679,4.668,1.307,7.21,1.905Z" fill="#ff9e85"></path>
              <path id="sh" d="m339.834,306.098c-.543-1.791-.861-3.347-1.13-6.142-.482-4.998-.157-9.585.393-14.257-7.97-1.138-15.6-4.566-21.742-9.771-.759,2.702-4.905,14.5-3.812,17.086,2.065,4.886,11.911,12.949,26.292,13.085Z" fill="#0c0c0c" opacity=".22"></path>
              <path d="m335.608,296.139c-15.451,2.475-32.599-2.754-38.053-23.196l-8.272-18.188c-5.454-20.442.862-39.878,20.109-45.013h0c19.247-5.135,35.402.161,40.856,20.603,0,0,3.297,11.683,3.966,15.668,2.524,15.026,4.837,46.371-18.606,50.126Z" fill="#ff9e85"></path>
              <path id="e1_eb" d="m350.673,242.437c-.022.678-2.559.794-5.966.513-3.407-.281-6.437-.689-6.373-1.531.08-1.064,2.921-1.697,6.328-1.416,3.407.281,6.045,1.368,6.011,2.434Z" fill="#0a0a0a"></path>
              <path d="m274.148,262.427l22.425,4.441c12.856-6.341,10.007-38.518,10.007-38.518,0,0,17.255,14.501,55.605,2.699,0,0-11.709-52.095-68.171-32.024-18.206,6.472-30.033,27.911-26.525,52.815,2.459,17.453,6.659,10.587,6.659,10.587Z" fill="#0a0a0a"></path>
              <path d="m297.06,279.109c-5.849,1.56-12.113-.097-14.438-8.908-1.545-5.853,2.938-10.713,8.787-12.274l4.06,3.115,6.62,16.725-5.029,1.342Z" fill="#ff9e85"></path>
              <g>
                <circle id="e1_eye" cx="346.459" cy="248.487" r="2.167" transform="translate(-17.35 26.174) rotate(-4.221)" fill="#0a0a0a"></circle>
                <g id="e1_n">
                  <path d="m337.107,267.138c-.437.032-.836-.27-.916-.711-.085-.471.228-.922.7-1.006l4.542-.816-3.492-8.936c-.174-.446.046-.948.493-1.123.445-.174.948.046,1.123.492l3.876,9.918c.094.242.075.513-.052.739s-.348.384-.603.43l-5.58,1.003c-.03.005-.06.009-.09.011Z" fill="#0a0a0a"></path>
                </g>
                <g id="e1_m">
                  <path d="m333.473,277.866c-7.835.578-10.516-3.984-10.637-4.199-.235-.417-.088-.945.328-1.181.414-.235.941-.09,1.178.323.113.194,2.848,4.668,11.394,3.001.479-.095.926.215,1.017.685.092.47-.215.925-.685,1.017-.922.18-1.787.295-2.596.354Z" fill="#0a0a0a"></path>
                </g>
                <path id="e1_eb-2" data-name="e1_eb" d="m324.393,243.922c.255.628-2.016,1.764-5.245,2.89s-6.162,1.982-6.446,1.186c-.359-1.005,1.981-2.736,5.21-3.862,3.228-1.126,6.08-1.203,6.481-.214Z" fill="#0a0a0a"></path>
                <circle id="e1_eye-2" data-name="e1_eye" cx="324.891" cy="251.464" r="2.167" transform="translate(-17.627 24.595) rotate(-4.221)" fill="#0a0a0a"></circle>
              </g>
              <path d="m283.1,254.416l.337,8.265c1.426-1.998,3.591-3.475,6.193-3.98.646-.134,1.294-.174,1.931-.168,4.172,2.832,1.793,8.743,5.012,8.335,1.828-.232,5.693-4.873,6.498-7.635.51-1.751-4.558-7.95-4.669-9.77" fill="#0a0a0a"></path>
            </g>
            <path d="m398.351,384.748c-1.135,13.332-6.655,96.51-7.746,112.931h-144.372c-.849-14.811-10.664-79.575-13.885-108.539-3.075-27.638-9.108-41.475-4.686-49.646,7.226-13.354,26.972-21.071,40.436-22.894,8.222-1.113,20.587-1.911,20.587-1.911,0,0,1.047,21.181,26.013,22.359,33.986,1.603,31.716-22.359,31.884-22.359,5.506,0,36.958,3.485,44.653,8.046,20.968,12.417,9.525,33.759,7.116,62.012Z" fill="#000000"></path>
            <path d="m492.063,394.062l-13.917,67.64c-.582,2.83-3.062,4.87-5.952,4.894l-95.826.816c-3.903.033-6.843-3.542-6.056-7.365l13.917-67.64c.582-2.83,3.062-4.87,5.952-4.894l95.826-.816c3.903-.033,6.843,3.542,6.056,7.365Z" fill="#292a2e"></path>
            <g>
              <path d="m402.707,442.107c.17,1.82-1.18,3.44-2.97,3.84l-2.95.65c.1.04.19.11.22.23.01.06-.01.13-.04.18,1.38.4,2.48,1.6,2.58,3.2.12,1.67-1.27,3.35-2.91,3.72l-24.91,5.53c-1.29.29-2.59.43-3.88.43-5.82,0-11.38-2.84-14.77-7.77-3.63-5.27-2.41-12.48,2.76-16.25l21.19-15.49c.48-.35,1.03-.57,1.58-.65l-1.95,9.47.52-.12.11-.02,16.25-3.31c1.81-.4,4.29.26,4.61,2.32.36,1.66-.49,3.29-1.96,3.99.01.01.03.02.03.04.01.02-.01.03-.01.05l2.81-.62c2.14-.48,4.26,1.09,4.33,3.4.05,1.72-1.24,3.2-2.92,3.57l-1.21.27c-.01.04,0,.08-.02.11,1.76.01,3.33,1.34,3.51,3.23Z" fill="#ff9e85"></path>
              <g fill="none" opacity=".25">
                <path d="m380.031,435.43c.04.173.211.284.386.248l15.548-3.189c.178-.037.292-.21.256-.388-.021-.17-.21-.292-.388-.256l-15.548,3.189c-.178.037-.292.21-.256.388l.002.008Z" fill="#0c0c0c"></path>
              </g>
              <g fill="none" opacity=".25">
                <path d="m381.248,442.326c.04.173.211.284.386.248l17.352-3.558c.178-.037.292-.21.256-.388-.034-.162-.21-.292-.388-.256l-17.352,3.558c-.178.037-.292.21-.256.388l.002.008Z" fill="#0c0c0c"></path>
              </g>
              <g fill="none" opacity=".25">
                <path d="m382.523,449.803c.04.173.211.284.386.248l13.841-2.838c.178-.037.292-.21.256-.388-.04-.179-.21-.292-.388-.256l-13.841,2.838c-.178.037-.292.21-.256.388l.002.008Z" fill="#0c0c0c"></path>
              </g>
            </g>
            <path id="b_4_b" d="m370.185,469.313l-135.145,24.423c-.993.108-1.985.161-2.973.161-7.514,0-14.753-3.087-19.968-8.615-5.901-6.256-8.531-14.915-7.104-23.395l18.92-112.457c2.516-14.953,16.674-25.032,31.63-22.519,14.953,2.516,25.035,16.677,22.519,31.63l-12.901,77.415,99.081-12.443,5.941,45.802Z" fill="#000000"></path>
            <g id="b_4_b-2" data-name="b_4_b">
              <path d="m235.039,494.236c-.237,0-.447-.169-.491-.411-.049-.271.132-.532.403-.581l134.677-24.338-5.816-44.836-98.587,12.381c-.163.02-.313-.035-.423-.149s-.159-.272-.133-.429l8.201-49.478c.045-.271.3-.463.575-.411.272.045.456.303.411.575l-8.092,48.815,98.416-12.359c.268-.033.522.158.559.432l5.941,45.802c.034.265-.145.509-.407.557l-135.145,24.423c-.03.005-.06.008-.09.008Z" fill="#0c0c0c"></path>
            </g>
            <rect x="256.414" y="436.153" width="8.804" height="1.001" transform="translate(-65.741 46.716) rotate(-9.095)" fill="#0c0c0c"></rect>
          </g>
        </g>
      </g>
      <g>
        <g>
          <rect x="620.877" y="553.252" width="340.242" height="145.753" rx="22.244" ry="22.244" fill="#fff"></rect>
          <rect x="620.877" y="553.252" width="340.242" height="145.753" rx="22.244" ry="22.244" fill="#000000" opacity=".4"></rect>
          <path d="m938.875,700.004h-295.754c-12.816,0-23.244-10.428-23.244-23.244v-101.264c0-12.816,10.428-23.244,23.244-23.244h295.754c12.816,0,23.244,10.428,23.244,23.244v101.264c0,12.816-10.428,23.244-23.244,23.244Zm-295.754-145.752c-11.714,0-21.244,9.53-21.244,21.244v101.264c0,11.714,9.53,21.244,21.244,21.244h295.754c11.714,0,21.244-9.53,21.244-21.244v-101.264c0-11.714-9.53-21.244-21.244-21.244h-295.754Z" fill="#292a2e"></path>
        </g>
        <g>
          <path d="m651.387,667.949c-.278,0-.559-.077-.81-.238-.697-.447-.899-1.375-.452-2.072.324-.505,33.011-50.479,84.954-50.479,27.143,0,43.588,10.474,59.492,20.603,14.722,9.376,28.627,18.231,50.145,18.231,43.993,0,79.433-63.891,79.785-64.536.397-.727,1.31-.994,2.036-.597s.994,1.309.597,2.036c-1.476,2.698-36.663,66.097-82.418,66.097-22.392,0-36.655-9.084-51.756-18.701-15.542-9.898-31.612-20.133-57.881-20.133-50.283,0-82.113,48.609-82.43,49.101-.286.446-.77.689-1.263.689Z" fill="#fff"></path>
          <circle cx="926.238" cy="590.177" r="5.87" fill="#fff"></circle>
        </g>
      </g>
    </g>
  </g>
</svg>