<svg id="Layer_2" data-name="Layer 2" xmlns="http://www.w3.org/2000/svg" viewBox="0 0 814.531 557.1" style="width: 100%; height: 100%;">
  <g id="Layer_2-2" data-name="Layer 2">
    <g>
      <g>
        <rect x="527.386" y=".493" width="155.191" height="201.999" fill="#f4f4f4"></rect>
        <rect x="682.576" y=".493" width="5.034" height="201.999" transform="translate(1370.187 202.985) rotate(180)" fill="#f4f4f4"></rect>
        <rect x="682.576" y=".493" width="5.034" height="201.999" transform="translate(1370.187 202.985) rotate(180)" fill="#292a2e" opacity=".05"></rect>
        <rect x="555.656" y="37.29" width="98.651" height="128.406" fill="#292a2e" opacity=".05"></rect>
        <rect x="649.165" y="37.29" width="5.141" height="128.406" fill="#292a2e" opacity=".03"></rect>
        <rect x="682.576" y="252.167" width="126.921" height="128.086" fill="#f4f4f4"></rect>
        <rect x="705.697" y="275.5" width="80.68" height="81.421" fill="#292a2e" opacity=".05"></rect>
        <rect x="809.497" y="252.167" width="5.034" height="128.086" transform="translate(1624.028 632.42) rotate(180)" fill="#f4f4f4"></rect>
        <rect x="809.497" y="252.167" width="5.034" height="128.086" transform="translate(1624.028 632.42) rotate(180)" fill="#292a2e" opacity=".05"></rect>
        <rect x="781.235" y="275.5" width="5.141" height="81.421" fill="#292a2e" opacity=".03"></rect>
      </g>
      <g>
        <rect id="c_3_c" x="66.257" y="0" width="378.643" height="378.643" fill="#f4f4f4"></rect>
        <rect id="c_3_c-2" data-name="c_3_c" x="444.9" y="0" width="4.34" height="378.643" fill="#f4f4f4"></rect>
        <rect id="c_3_c-3" data-name="c_3_c" x="444.9" y="0" width="4.34" height="378.643" fill="#292a2e" opacity=".05"></rect>
        <polygon id="c_3_c-4" data-name="c_3_c" points="353.172 260.916 353.172 161.851 272.023 161.851 272.023 219.406 146.323 219.406 146.323 321.314 92.899 321.314 92.899 378.643 146.323 378.643 156.615 378.643 426.686 378.643 426.686 260.916 353.172 260.916" fill="#292a2e" opacity=".05"></polygon>
        <g id="c_3_wh">
          <rect id="c_3_wh-2" data-name="c_3_wh" x="282.44" y="172.607" width="59.094" height="10.756" fill="#fffffa" opacity=".34"></rect>
          <rect id="c_3_wh-3" data-name="c_3_wh" x="282.44" y="194.896" width="59.094" height="10.756" fill="#fffffa" opacity=".34"></rect>
          <rect id="c_3_wh-4" data-name="c_3_wh" x="282.44" y="217.185" width="59.094" height="10.756" fill="#fffffa" opacity=".34"></rect>
        </g>
        <g id="c_3_wh-5" data-name="c_3_wh">
          <rect id="c_3_wh-6" data-name="c_3_wh" x="405.315" y="271.357" width="10.892" height="10.756" fill="#fffffa" opacity=".34"></rect>
          <rect id="c_3_wh-7" data-name="c_3_wh" x="405.315" y="293.646" width="10.892" height="10.756" fill="#fffffa" opacity=".34"></rect>
          <rect id="c_3_wh-8" data-name="c_3_wh" x="405.315" y="315.935" width="10.892" height="10.756" fill="#fffffa" opacity=".34"></rect>
          <rect id="c_3_wh-9" data-name="c_3_wh" x="385.165" y="271.357" width="10.892" height="10.756" fill="#fffffa" opacity=".34"></rect>
          <rect id="c_3_wh-10" data-name="c_3_wh" x="385.165" y="293.646" width="10.892" height="10.756" fill="#fffffa" opacity=".34"></rect>
          <rect id="c_3_wh-11" data-name="c_3_wh" x="385.165" y="315.935" width="10.892" height="10.756" fill="#fffffa" opacity=".34"></rect>
          <rect id="c_3_wh-12" data-name="c_3_wh" x="365.56" y="271.357" width="10.892" height="10.756" fill="#fffffa" opacity=".34"></rect>
          <rect id="c_3_wh-13" data-name="c_3_wh" x="365.56" y="293.646" width="10.892" height="10.756" fill="#fffffa" opacity=".34"></rect>
          <rect id="c_3_wh-14" data-name="c_3_wh" x="365.56" y="315.935" width="10.892" height="10.756" fill="#fffffa" opacity=".34"></rect>
        </g>
        <polygon points="444.9 187.198 368.711 187.198 368.711 0 362.41 0 362.41 187.198 156.615 187.198 156.615 0 150.314 0 150.314 187.198 66.257 187.198 66.257 193.498 150.314 193.498 150.314 378.643 156.615 378.643 156.615 193.498 362.41 193.498 362.41 378.643 368.711 378.643 368.711 193.498 444.9 193.498 444.9 187.198" fill="#fff"></polygon>
        <rect id="c_3_c-5" data-name="c_3_c" x="51.173" y="378.186" width="408.811" height="12.592" fill="#f4f4f4"></rect>
        <rect id="c_3_c-6" data-name="c_3_c" x="51.173" y="378.186" width="408.811" height="12.592" fill="#292a2e" opacity=".1"></rect>
        <rect id="c_3_c-7" data-name="c_3_c" x="459.984" y="378.186" width="5.902" height="12.592" fill="#292a2e" opacity=".1"></rect>
        <rect id="c_3_c-8" data-name="c_3_c" x="459.984" y="378.186" width="5.902" height="12.592" fill="#292a2e" opacity=".1"></rect>
        <g>
          <rect x="66.257" y="6.759" width="382.983" height="9.362" fill="#fff"></rect>
          <rect x="66.257" y="24.246" width="382.983" height="9.362" fill="#fff"></rect>
          <rect x="66.257" y="41.733" width="382.983" height="9.362" fill="#fff"></rect>
          <rect x="66.257" y="59.22" width="382.983" height="9.362" fill="#fff"></rect>
          <rect x="66.257" y="76.707" width="382.983" height="9.362" fill="#fff"></rect>
        </g>
        <rect x="402.823" width="5.739" height="96.629" fill="#fff"></rect>
        <circle cx="406.179" cy="102.62" r="7.885" fill="#fff"></circle>
      </g>
      <g>
        <g id="tail">
          <path d="m343.877,453.631c-1.033,0-2.071-.091-3.102-.276-5.689-1.023-10.66-4.654-13.296-9.712-2.609-5.004-2.623-10.846-.041-16.449,1.524-3.306,3.526-6.027,5.988-8.145-9.365-2.321-19.015-1.668-19.158-1.657-2.785.201-5.197-1.883-5.402-4.659-.206-2.777,1.874-5.195,4.651-5.404.914-.069,20.146-1.401,33.789,6.405,10.489-.63,20.491,4.304,21.002,4.56,2.491,1.249,3.498,4.281,2.248,6.772-1.249,2.491-4.283,3.497-6.772,2.248-1.117-.554-3.045-1.351-5.381-2.05,1.399,2.947,2.201,6.209,2.396,9.765.32,5.808-1.672,10.923-5.61,14.404-3.073,2.716-7.144,4.197-11.313,4.197Zm1.034-29.386c-.424.105-.841.228-1.248.371-3.154,1.113-5.464,3.338-7.06,6.801-1.282,2.781-1.341,5.325-.176,7.561,1.167,2.24,3.575,3.984,6.134,4.444,2.18.392,4.403-.187,5.944-1.549,1.6-1.414,2.367-3.589,2.218-6.289-.244-4.427-1.908-7.938-5.088-10.735-.236-.207-.477-.409-.725-.605Z" fill="#000000"></path>
          <g fill="none" opacity=".6">
            <path d="m343.877,453.631c-1.033,0-2.071-.091-3.102-.276-5.689-1.023-10.66-4.654-13.296-9.712-2.609-5.004-2.623-10.846-.041-16.449,1.524-3.306,3.526-6.027,5.988-8.145-9.365-2.321-19.015-1.668-19.158-1.657-2.785.201-5.197-1.883-5.402-4.659-.206-2.777,1.874-5.195,4.651-5.404.914-.069,20.146-1.401,33.789,6.405,10.489-.63,20.491,4.304,21.002,4.56,2.491,1.249,3.498,4.281,2.248,6.772-1.249,2.491-4.283,3.497-6.772,2.248-1.117-.554-3.045-1.351-5.381-2.05,1.399,2.947,2.201,6.209,2.396,9.765.32,5.808-1.672,10.923-5.61,14.404-3.073,2.716-7.144,4.197-11.313,4.197Zm1.034-29.386c-.424.105-.841.228-1.248.371-3.154,1.113-5.464,3.338-7.06,6.801-1.282,2.781-1.341,5.325-.176,7.561,1.167,2.24,3.575,3.984,6.134,4.444,2.18.392,4.403-.187,5.944-1.549,1.6-1.414,2.367-3.589,2.218-6.289-.244-4.427-1.908-7.938-5.088-10.735-.236-.207-.477-.409-.725-.605Z" fill="#fff"></path>
          </g>
          <g fill="none" opacity=".5">
            <path d="m332.018,434.353c-.707,0-1.425-.149-2.109-.464-2.531-1.167-3.637-4.164-2.471-6.695,2.766-6.002,7.111-10.077,12.914-12.11,12.542-4.396,27.332,2.898,27.955,3.21,2.491,1.249,3.498,4.281,2.248,6.772-1.249,2.491-4.283,3.497-6.772,2.248-3.203-1.589-13.084-5.181-20.121-2.698-3.154,1.113-5.464,3.338-7.06,6.801-.851,1.847-2.678,2.935-4.586,2.935Z" fill="#fff"></path>
          </g>
        </g>
        <path d="m128.189,360.56s-31.148-23.093-42.23-14.012c-10.031,8.22,1.586,41.027,1.586,41.027,0,0,26.776,2.417,40.644-27.015Z" fill="#000000"></path>
        <g fill="none" opacity=".2">
          <path d="m128.189,360.56s-31.148-23.093-42.23-14.012c-10.031,8.22,1.586,41.027,1.586,41.027,0,0,26.776,2.417,40.644-27.015Z" fill="#fff"></path>
        </g>
        <path d="m330.622,435.756c0-58.195-47.87-105.371-123.158-105.371-67.619,0-123.852,37.387-134.583,87.301h-15.707v67.469h29.436c8.679,12.714,20.84,23.589,35.187,32.56v30.79c0,4.194,3.4,7.594,7.594,7.594h10.201c.234,0,.465-.016.694-.035.229.019.46.035.694.035h10.201c4.194,0,7.594-3.4,7.594-7.594v-14.307c15.122,4.471,31.533,6.928,48.689,6.928,10.889,0,21.199-.993,30.879-2.857v10.236c0,4.194,3.4,7.594,7.594,7.594h10.201c.234,0,.465-.016.694-.035.229.019.46.035.694.035h10.201c4.194,0,7.594-3.4,7.594-7.594v-23.046c34.978-18.562,55.3-51.792,55.3-89.704Z" fill="#000000"></path>
        <path d="m330.622,435.756c0-58.195-47.87-105.371-123.158-105.371-67.619,0-123.852,37.387-134.583,87.301h-15.707v67.469h29.436c8.679,12.714,20.84,23.589,35.187,32.56v30.79c0,4.194,3.4,7.594,7.594,7.594h10.201c.234,0,.465-.016.694-.035.229.019.46.035.694.035h10.201c4.194,0,7.594-3.4,7.594-7.594v-14.307c15.122,4.471,31.533,6.928,48.689,6.928,10.889,0,21.199-.993,30.879-2.857v10.236c0,4.194,3.4,7.594,7.594,7.594h10.201c.234,0,.465-.016.694-.035.229.019.46.035.694.035h10.201c4.194,0,7.594-3.4,7.594-7.594v-23.046c34.978-18.562,55.3-51.792,55.3-89.704Z" fill="#fff" opacity=".5"></path>
        <circle cx="96.215" cy="396.965" r="4.452" fill="#262626"></circle>
        <path d="m118.562,371.537c-2.287-2.071-2.656-5.771-.881-8.38,5.926-8.709,19.499-26.585,28.849-22.928,8.556,3.346,10.608,24.777,11.099,34.436.15,2.947-1.632,5.582-4.236,6.29-6.863,1.865-20.807,3.28-34.831-9.418Z" fill="#000000"></path>
        <g fill="none" opacity=".2">
          <path d="m118.562,371.537c-2.287-2.071-2.656-5.771-.881-8.38,5.926-8.709,19.499-26.585,28.849-22.928,8.556,3.346,10.608,24.777,11.099,34.436.15,2.947-1.632,5.582-4.236,6.29-6.863,1.865-20.807,3.28-34.831-9.418Z" fill="#fff"></path>
        </g>
        <rect x="168.437" y="339.282" width="76.756" height="9.719" rx="4.859" ry="4.859" fill="#262626"></rect>
        <path d="m244.777,346.11c-.246.553-.588,1.049-1.009,1.47-.878.878-2.093,1.422-3.435,1.422h-67.038c-1.983,0-3.69-1.189-4.44-2.896.241-.553.584-1.057,1.009-1.474.878-.886,2.088-1.426,3.431-1.426h67.038c1.988,0,3.694,1.194,4.445,2.905Z" fill="#fff" opacity=".2"></path>
        <ellipse cx="57.173" cy="451.42" rx="15.097" ry="33.735" fill="#000000"></ellipse>
        <g fill="none" opacity=".7">
          <ellipse cx="57.173" cy="451.42" rx="15.097" ry="33.735" fill="#fff"></ellipse>
        </g>
      </g>
      <path d="m797.129,557.1H1c-.552,0-1-.448-1-1s.448-1,1-1h796.129c.552,0,1,.448,1,1s-.448,1-1,1Z" fill="#292a2e"></path>
      <g>
        <g>
          <path d="m674.076,144.045s7.211,39.192,16.058,50.038c25.47,31.226,35.163,57.042,16.666,79.74-18.497,22.698-152.975,40.446-169.128-4.14-13.599-37.537,4.272-44.083,4.611-76.55.153-14.69,1.8-45.666,1.8-45.666" fill="#0a0a0a"></path>
          <path id="sk" d="m564.31,250.45c.234-.031,2.833,43.082,52.918,39.324,34.673-2.597,47.036-39.385,47.831-39.385-3.738-.795-10.034-1.95-11.694-2.836-5.46-2.934-12.215-5.986-13.975-16.589-1.014-6.111.706-37.375.177-43.558l-53.223,11.879c.744,13.059,5.949,43.332-12.295,48.689-3.035.886-6.305,1.701-9.738,2.475Z" fill="#ff9e85"></path>
          <path id="sh" d="m585.596,235.602c.754-2.406,1.202-4.499,1.601-8.261.713-6.727.333-12.911-.348-19.213,10.752-1.431,21.075-5.954,29.416-12.887.988,3.65,6.424,19.598,4.919,23.067-2.845,6.557-16.212,17.294-35.588,17.294Z" fill="#0c0c0c" opacity=".22"></path>
          <path d="m595.908,226.758c21.071-.683,42.415-11.991,44.393-40.427l6.284-26.177c1.978-28.436-11.353-52.527-38.127-54.39h0c-26.774-1.863-46.787,9.279-48.765,37.715,0,0-1.369,16.298-1.234,21.74.51,20.522,5.477,62.575,37.448,61.538Z" fill="#ff9e85"></path>
          <path id="e1_eb" d="m557.785,160.849c.203.891,3.588.396,8.023-.849,4.435-1.244,8.338-2.559,8.038-3.658-.378-1.387-4.298-1.497-8.734-.252-4.435,1.244-7.646,3.357-7.328,4.759Z" fill="#0a0a0a"></path>
          <path d="m668.569,166.427l-28.525,11.618c-18.629-5.094-23.101-48.387-23.101-48.387,0,0-19.11,23.6-72.859,17.81,0,0,2.147-71.907,81.971-59.817,25.739,3.898,46.874,29.227,48.611,63.068,1.217,23.715-6.096,15.708-6.096,15.708Z" fill="#0a0a0a"></path>
          <path d="m642.535,194.361c8.136.566,15.997-3.23,16.816-15.48.544-8.138-6.629-13.418-14.766-13.985l-4.572,5.16-4.474,23.818,6.995.487Z" fill="#ff9e85"></path>
          <g>
            <circle id="e1_eye" cx="566.207" cy="169.815" r="2.919" transform="translate(-16.011 67.59) rotate(-6.736)" fill="#0a0a0a"></circle>
            <g id="e1_n">
              <path d="m586.312,189.07c.587-.069,1.037-.572,1.029-1.175-.008-.645-.538-1.161-1.183-1.152l-6.217.083,2.331-12.714c.116-.634-.304-1.243-.939-1.359-.634-.116-1.242.303-1.359.938l-2.586,14.111c-.063.344.032.697.257.964s.558.419.908.414l7.638-.102c.041,0,.082-.003.122-.008Z" fill="#0a0a0a"></path>
            </g>
            <g id="e1_m">
              <path d="m590.748,201.865c10.559.738,14.147-5.423,14.309-5.712.315-.563.114-1.274-.448-1.589-.559-.315-1.268-.116-1.586.442-.151.262-3.813,6.303-15.335,4.102-.646-.126-1.246.295-1.367.928-.121.633.295,1.245.928,1.366,1.243.238,2.409.388,3.499.464Z" fill="#0a0a0a"></path>
            </g>
            <path id="e1_eb-2" data-name="e1_eb" d="m592.926,156.084c-.176.897,3.119,1.817,7.677,2.479,4.559.662,8.659,1.044,8.831-.082.217-1.421-3.321-3.112-7.88-3.774-4.559-.662-8.351-.034-8.628,1.376Z" fill="#0a0a0a"></path>
            <circle id="e1_eye-2" data-name="e1_eye" cx="596.778" cy="167.815" r="2.919" transform="translate(-15.565 71.162) rotate(-6.736)" fill="#0a0a0a"></circle>
          </g>
          <path d="m633.169,155.491c.319,2.436-4.798,11.934-3.674,14.119,1.772,3.447,8.072,8.597,10.55,8.435,4.362-.285-.299-7.494,4.495-12.309.84-.172,1.708-.285,2.597-.273,3.571.003,6.812,1.401,9.211,3.679l-1.67-11.018" fill="#0a0a0a"></path>
        </g>
        <polygon points="729.989 501.812 738.894 556.1 516.795 556.1 525.097 501.484 729.989 501.812" fill="#262626"></polygon>
        <path id="b_1_b" d="m618.528,278.236c34.092-1.607,35.527-30.544,35.527-30.544,0,0,16.892,1.092,28.121,2.611,18.384,2.487,30.512,8.721,40.163,18.372,8.978,8.978,14.444,18.692,8.66,80.711-4.188,44.906-1.01,152.426-1.01,152.426l-204.892-.328s-19.117-137.883-20.837-158.097c-3.283-38.589,3.712-71.211,11.724-79.223,16.471-16.471,44.828-16.471,58.989-16.469.231,0-2.873,32.73,43.555,30.541Z" fill="#000000"></path>
        <g>
          <path d="m272.533,227.134c-2.633-1.616-6.104-.712-7.599,2.038-1.402,2.578-.309,5.827,2.192,7.361l6.238,3.827-25.23-3.042c-2.799-.387-6.482.928-6.709,4.097-.352,2.549,1.135,4.919,3.441,5.796-.008.029-.023.055-.025.085-.003.022.005.041.005.063l-4.317-.597c-3.312-.458-6.339,2.181-6.155,5.703.136,2.617,2.273,4.702,4.869,5.061l1.837.254c.018.058.045.114.082.161-2.548.23-4.681,2.244-4.911,4.936-.25,2.924,2.055,5.461,4.962,5.863l4.515.624c-.137.074-.242.204-.266.372-.012.099.014.19.054.273-2.098.798-3.627,2.865-3.495,5.396.137,2.617,2.274,4.702,4.87,5.061l38.495,5.323c11.016,1.523,21.855-3.79,27.399-13.431l8.725-15.174-48.979-30.05Z" fill="#ff9e85"></path>
          <g fill="none" opacity=".2">
            <path d="m269.823,250.352c-.039.268-.285.457-.555.424l-23.989-2.923c-.274-.034-.469-.283-.436-.557.011-.26.283-.469.557-.436l23.989,2.923c.274.034.469.283.436.557l-.002.012Z" fill="#0c0c0c"></path>
          </g>
          <g fill="none" opacity=".2">
            <path d="m268.825,260.967c-.039.268-.285.457-.555.424l-26.772-3.263c-.274-.034-.469-.283-.436-.557.032-.25.283-.469.557-.436l26.772,3.263c.274.034.469.283.436.557l-.002.012Z" fill="#0c0c0c"></path>
          </g>
          <g fill="none" opacity=".2">
            <path d="m267.811,272.471c-.039.268-.285.457-.555.424l-21.356-2.602c-.274-.034-.469-.283-.436-.557.039-.276.283-.469.557-.436l21.356,2.602c.274.034.469.283.436.557l-.002.012Z" fill="#0c0c0c"></path>
          </g>
        </g>
        <g>
          <g>
            <circle cx="209.747" cy="243.505" r="63.47" fill="#000000"></circle>
            <g fill="none" opacity=".1">
              <circle cx="209.747" cy="243.505" r="50.316" fill="#292a2e"></circle>
            </g>
          </g>
          <path d="m206.384,267.649l-.265-8.656c4.681.236,8.185-.413,11.035-2.377,3.416-2.354,3.942-4.806,2.052-7.549-4.273-6.2-20.104,4.874-27.598-6.001-4.817-6.991-3.044-14.781,4.593-20.043,5.155-3.552,10.123-3.839,14.995-2.793l-.933,8.132c-3.564-.483-6.144-.252-8.66,1.482-2.899,1.998-3.666,4.251-1.801,6.958,3.96,5.747,19.522-5.718,27.461,5.802,4.769,6.92,3.639,15.081-5.182,21.16-3.807,2.623-10.168,4.623-15.696,3.884Zm-17.6-48.225l5.879-4.051,5.981,8.679-5.879,4.051-5.981-8.679Zm28.946,42.004l5.879-4.051,6.563,9.523-5.879,4.051-6.563-9.523Z" fill="#fff"></path>
        </g>
        <path d="m275.605,241.849l-8.479-5.317c-2.501-1.535-3.594-4.783-2.192-7.361,1.495-2.749,4.966-3.653,7.599-2.038" fill="#ff9e85"></path>
        <path d="m598.784,376.963l-26.372-21.855c-2.379-1.971-5.942-1.567-7.811.944-1.752,2.354-1.129,5.724,1.131,7.597l5.635,4.67,26.522,13.736.895-5.092Z" fill="#ff9e85"></path>
        <g>
          <path d="m571.367,368.319l-24.547-6.575c-2.717-.779-6.548.003-7.22,3.108-.709,2.474.425,5.036,2.585,6.23-.011.025-.029.047-.034.075-.006.021-.001.042-.004.063l-4.189-1.201c-3.214-.921-6.583,1.264-6.899,4.776-.235,2.61,1.587,4.976,4.106,5.698l1.783.511c.009.059.028.115.057.166-2.554-.132-4.949,1.566-5.557,4.198-.66,2.859,1.263,5.696,4.084,6.505l4.382,1.256c-.146.054-.269.167-.316.331-.026.096-.013.19.015.278-2.189.493-3.995,2.324-4.222,4.848-.234,2.61,1.587,4.976,4.106,5.698l37.357,10.706c10.691,3.064,22.172-.665,29.021-9.427l10.781-13.79-45.289-23.455Z" fill="#ff9e85"></path>
          <g fill="none" opacity=".2">
            <path d="m566.45,377.711c-.077.26-.347.412-.61.342l-23.336-6.282c-.266-.072-.424-.346-.353-.613.047-.256.347-.425.613-.353l23.336,6.282c.266.072.424.346.353.613l-.003.011Z" fill="#0c0c0c"></path>
          </g>
          <g fill="none" opacity=".2">
            <path d="m563.963,388.08c-.077.26-.347.412-.61.342l-26.043-7.011c-.266-.072-.424-.346-.353-.613.067-.243.346-.424.613-.353l26.043,7.011c.266.072.424.346.353.613l-.003.011Z" fill="#0c0c0c"></path>
          </g>
          <g fill="none" opacity=".2">
            <path d="m561.335,399.325c-.077.26-.347.412-.61.342l-20.774-5.592c-.266-.072-.424-.346-.353-.613.078-.268.346-.424.613-.353l20.774,5.592c.266.072.424.346.353.613l-.003.011Z" fill="#0c0c0c"></path>
          </g>
        </g>
        <path d="m579.708,424.689l169.665,48.976c3.188.847,6.421,1.258,9.625,1.258,10.818,0,21.3-4.689,28.527-13.158,9.368-10.979,11.605-26.357,5.753-39.549l-57.844-137.801c-8.399-18.932-39.769-38.359-58.697-29.96-18.932,8.398-18.258,41.442-9.859,60.373l34.781,72.465-105.787-24.456-16.163,61.853Z" fill="#000000"></path>
        <path d="m729.244,468.354c-.046,0-.092-.006-.139-.02l-149.536-43.165c-.261-.075-.414-.345-.345-.607l16.163-61.853c.068-.263.332-.423.597-.361l104.773,24.222-34.331-71.527c-.12-.249-.015-.547.234-.667.25-.122.547-.015.667.234l34.781,72.465c.083.173.06.379-.061.529-.121.15-.315.215-.503.175l-105.313-24.347-15.917,60.911,149.068,43.03c.265.077.418.354.342.619-.063.219-.263.361-.48.361Z" fill="#0c0c0c"></path>
        <path d="m719.124,391.591c-.035,0-.071-.003-.107-.011l-17.465-3.799c-.27-.059-.441-.325-.382-.595.059-.27.324-.442.595-.382l17.465,3.799c.27.059.441.325.382.595-.051.234-.258.394-.488.394Z" fill="#0c0c0c"></path>
        <line x1="502.356" y1="320.743" x2="500.128" y2="291.905" fill="none" stroke="#0c0c0c" stroke-linecap="round" stroke-linejoin="round"></line>
        <path d="m416.14,439.441c-9.861,0-19.69-3.868-27.035-11.503l-126.003-130.991,54.052-51.994,101.14,105.144,99.074-87.147,49.535,56.314-126.003,110.834c-7.109,6.253-15.947,9.343-24.759,9.343Z" fill="#000000"></path>
        <rect x="505.005" y="338.358" width="1" height="33.218" transform="translate(-40.356 65.877) rotate(-7.171)" fill="#0c0c0c"></rect>
      </g>
    </g>
  </g>
</svg>