<svg id="Layer_2" data-name="Layer 2" xmlns="http://www.w3.org/2000/svg" viewBox="0 0 771.002 765.527" style="width: 100%; height: 100%;">
  <g id="Layer_2-2" data-name="Layer 2">
    <g>
      <path d="m199.64,731.077c.09.09.19.18.28.27h-.42c.05-.09.09-.18.14-.27Z" fill="#000000" opacity=".1"></path>
      <path d="m682.19,518.537c0,80.14-27.08,153.97-72.59,212.81h-244.77c23.99-23.48,39.01-57.09,39.01-94.4,0-60.91-40.02-111.93-93.75-125.21l47.96-146.39-71.69-52.61-85.97,88.67c-14.93-5.96-31.22-9.24-48.27-9.24-42.61,0-80.44,20.46-104.21,52.09-12.83-12.66-29.4-21.53-47.91-24.81,42.68-144.06,176.04-249.15,333.93-249.15,192.34,0,348.26,155.91,348.26,348.24Z" fill="#000000" opacity=".1"></path>
      <g>
        <g>
          <path id="sk" d="m539.347,489.355c.229-.03,2.764,42.039,51.636,38.372,33.834-2.535,45.898-38.431,46.673-38.431-3.648-.775-8.156-1.952-9.948-2.356-5.952-1.341-13.383-6.253-15.1-16.599-.99-5.963.689-36.47.172-42.503l-51.935,11.592c.726,12.742,5.805,42.283-11.997,47.511-2.962.865-6.153,1.66-9.502,2.415Z" fill="#ff9e85"></path>
          <path id="sh" d="m560.118,474.867c.736-2.348,1.173-4.39,1.562-8.061.696-6.564.325-12.599-.339-18.748,10.492-1.397,20.565-5.81,28.704-12.575.964,3.561,6.268,19.123,4.8,22.508-2.776,6.398-15.819,16.875-34.726,16.875Z" fill="#0c0c0c" opacity=".22"></path>
          <g>
            <path d="m539.281,384.723s-12.635-13.606-11.747-39.6c.688-20.126,16.535-4.193,16.535-4.193,0,0,.636-14.487,10.695-11.251,10.059,3.236,13.196,19.131,13.196,19.131" fill="#0c0c0c"></path>
            <path d="m607.772,340.804s50.191,14.575,19.378,80.622l-4.581-.501-9.3-1.017" fill="#0c0c0c"></path>
            <path d="m566.35,462.146c20.495,1.775,46.904-6.682,52.117-34.004l4.704-24.653c5.213-27.322-4.911-52.208-30.636-57.116h0c-25.725-4.908-49.179,13.572-54.392,40.893l-2.082,10.914c-.429,2.247-.962,6.323-1.175,11.373-.426,10.075-1.034,25.401,3.848,36.709,4.608,10.675,14.524,14.75,27.617,15.884Z" fill="#ff9e85"></path>
            <path d="m557.18,432.96c-.384-.025-.67.33-.583.705,1.125,4.861,5.663,7.673,10.732,6.907s8.814-4.804,8.51-9.76c-.024-.396-.428-.649-.793-.494-1.163.494-3.886,1.434-9.026,2.173-4.415.634-7.51.556-8.84.47Z" fill="#fff"></path>
            <g>
              <g>
                <circle id="e1_eye" cx="545.743" cy="400.705" r="2.856" transform="translate(123.701 930.121) rotate(-87.726)" fill="#0a0a0a"></circle>
                <g id="e1_n">
                  <path d="m563.783,425.563c.577.023,1.09-.394,1.174-.978.091-.624-.342-1.204-.967-1.294l-6.019-.872,4.2-11.926c.209-.595-.103-1.247-.699-1.457-.595-.209-1.247.103-1.457.698l-4.661,13.237c-.113.322-.076.679.101.971s.475.49.814.539l7.395,1.071c.04.006.08.009.119.011Z" fill="#0a0a0a"></path>
                </g>
                <path id="e1_eb" d="m575.052,390.209c-.308.839,2.735,2.233,7.037,3.572s8.206,2.335,8.544,1.274c.427-1.339-2.687-4.657-6.989-5.995-4.303-1.338-8.108-.171-8.592,1.149Z" fill="#0a0a0a"></path>
                <circle id="e1_eye-2" data-name="e1_eye" cx="576.522" cy="403.764" r="2.856" transform="translate(150.202 963.813) rotate(-87.726)" fill="#0a0a0a"></circle>
              </g>
              <path id="e1_eb-2" data-name="e1_eb" d="m540.372,389.43c.059.892,3.406.932,7.881.409,4.476-.523,8.447-1.195,8.326-2.302-.153-1.397-3.878-3.246-8.354-2.723-4.476.523-7.947,3.213-7.854,4.616Z" fill="#0a0a0a"></path>
            </g>
            <path d="m615.282,436.161c7.818,1.492,15.751-5.663,17.242-13.48,1.492-7.818-4.023-13.338-11.841-14.83l-5.028,4.47-7.095,22.558,6.721,1.282Z" fill="#ff9e85"></path>
            <path d="m612.149,422.395c-1.328-.115-2.315-1.275-2.207-2.603.702-8.58,2.322-37.496-7.306-41.305-7.542-2.984-28.49,4.745-45.471-1.73-7.429-2.833-15.067-2.226-16.455,1.274-.55,1.386-1.668-20.132,13.16-33.678,11.806-10.785,43.808-8.737,57.354-2.107,37.51,18.36,10.771,67.598,10.771,67.598l-3.549,11.196c-.343,1.081-1.389,1.78-2.519,1.682l-3.778-.327Z" fill="#0c0c0c"></path>
            <ellipse cx="570.907" cy="345.3" rx="16.038" ry="10.896" transform="translate(37.76 746.45) rotate(-68.125)" fill="#0c0c0c"></ellipse>
          </g>
        </g>
        <path id="b_1_b" d="m592.295,517.559c34.092-1.607,35.527-30.544,35.527-30.544,0,0,16.892,1.092,28.121,2.611,18.384,2.487,30.512,8.721,40.163,18.372,8.978,8.978,14.444,18.692,8.66,80.711-4.188,44.906-1.24,143.679-1.24,143.679h-205.75s-12.338-129.465-14.058-149.679c-3.283-38.589-5.948-72.206,2.064-80.218,16.471-16.471,48.797-15.476,62.958-15.474.231,0-2.873,32.73,43.555,30.541Z" fill="#000000"></path>
        <path id="b_4_b" d="m292.018,731.057l148.596.734c14.556-1.052,27.179-10.453,32.357-24.097l73.292-162.603c7.349-19.363-2.392-41.017-21.755-48.365-19.366-7.349-38.483-2.408-45.832,16.954l-67.335,145.031-122.336,1.985s2.092,70.427,3.013,70.36Z" fill="#000000"></path>
        <path d="m486.627,591.731c-.018-.275-.255-.486-.53-.468-.276.018-.485.255-.468.53l4.183,66.828c.016.251.215.448.459.467.023.002.047.002.071,0,.276-.018.485-.255.468-.53" fill="#0c0c0c"></path>
        <g id="b_4_ha">
          <path d="m461.285,663.397l30.135-10.563-4.326-.299c-2.865-.314-5.197-2.74-5.033-5.617.175-3.068,2.878-5.326,5.893-4.996l53.314,5.665-1.385,17.133c-.88,10.885-8.277,20.148-18.698,23.415l-23.088,7.192c-2.456.77-5.228-.185-6.446-2.452-1.177-2.19-.689-4.664.836-6.252-.066-.054-.127-.116-.159-.201-.061-.161-.026-.33.066-.461l-4.256,1.334c-2.75.862-5.86-.425-6.864-3.126-.926-2.489.123-5.178,2.292-6.449-.052-.026-.09-.062-.131-.105l-1.749.548c-2.456.77-5.228-.186-6.446-2.452-1.426-2.652-.415-5.726,1.931-7.13-.009-.036-.016-.072-.016-.108l-12.549,4.399c-2.616.917-5.481-.46-6.398-3.077-.917-2.616.46-5.481,3.077-6.398Z" fill="#ff9e85"></path>
          <path id="b_4_ha_sh" d="m477.649,668.964c.057,0,.114-.01.171-.03l12.139-4.414c.259-.094.394-.381.299-.641-.094-.259-.381-.392-.641-.299l-12.139,4.414c-.259.094-.394.381-.299.641.074.203.266.329.47.329Z" fill="#0a0a0a" opacity=".2"></path>
          <path id="b_4_ha_sh-2" data-name="b_4_ha_sh" d="m483.785,677.79c.056,0,.112-.009.167-.029l9.568-3.395c.26-.092.396-.378.304-.638-.092-.261-.378-.397-.638-.304l-9.568,3.395c-.26.092-.396.378-.304.638.073.205.266.333.471.333Z" fill="#0a0a0a" opacity=".2"></path>
          <path id="b_4_ha_sh-3" data-name="b_4_ha_sh" d="m492.795,686.745c.059,0,.12-.011.178-.033l4.481-1.709c.258-.098.387-.387.289-.645-.098-.26-.386-.39-.646-.289l-4.481,1.709c-.258.098-.387.387-.289.645.076.2.266.322.467.322Z" fill="#0a0a0a" opacity=".2"></path>
        </g>
        <path id="b_4_b-2" data-name="b_4_b" d="m518.932,700.695l186.838,30.975c1.356.147,2.712.22,4.061.22,10.264,0,20.15-4.216,27.274-11.767,8.061-8.545,11.652-20.372,9.703-31.955l-39.842-159.603c-3.437-20.423-22.775-34.19-43.202-30.759-20.423,3.436-34.195,22.778-30.759,43.202l30.555,111.235-135.764-18.546-8.865,66.997Z" fill="#000000"></path>
        <g id="b_4_st">
          <path d="m687.915,655.735c.244,0,.457-.178.494-.426.041-.273-.147-.527-.42-.568l-23.288-3.487c-.283-.043-.528.147-.569.42-.041.273.147.527.42.568l23.288,3.487c.025.004.05.006.075.006Z" fill="#0c0c0c"></path>
        </g>
        <g id="b_4_st-2" data-name="b_4_st">
          <path d="m700.569,732.389c.248,0,.462-.184.495-.436.036-.273-.157-.524-.431-.561l-180.654-31.077,8.757-66.001,134.825,17.929c.158.019.315-.035.425-.148.11-.114.16-.274.134-.431l-14.589-62.941c-.045-.272-.298-.461-.576-.41-.272.046-.456.304-.41.576l14.477,62.273-134.661-17.907c-.133-.019-.269.02-.375.103s-.174.206-.188.34l-8.865,66.997c-.029.27.163.515.432.55l181.139,31.141c.022.003.044.004.065.004Z" fill="#0c0c0c"></path>
        </g>
      </g>
      <path d="m3.873,733.389h766.129c.552,0,1-.448,1-1,0-.552-.448-1-1-1H3.873c-.552,0-1,.448-1,1,0,.552.448,1,1,1Z" fill="#292a2e"></path>
      <path d="m364.83,731.347c-21.65,21.22-50.62,34.18-82.46,34.18s-60.79-12.97-82.45-34.18h164.91Z" fill="#fff"></path>
      <g>
        <path d="m335.305,318.415c-37.838-24.138-88.074-13.034-112.21,24.799-.026.04-.051.081-.077.121-2.979,4.688-10.06,3.55-11.408-1.838-5.23-20.904-1.594-46.941,10.909-66.54,24.059-37.714,86.623-65.554,124.315-41.46" fill="#000000"></path>
        <path d="m332.523,316.641c37.838,24.138,48.943,74.375,24.807,112.208-.026.04-.051.08-.077.121-2.995,4.677,1.021,10.619,6.476,9.571,21.161-4.069,43.239-18.34,55.742-37.939,24.059-37.714,22.935-106.183-14.801-130.207" fill="#000000"></path>
        <path d="m534.308,104.603c-6.409,31.542-18.951,67.557-42.272,104.113-39.814,62.41-89.362,108.965-128.744,147.379l-76.928-49.076c19.042-51.39,39.568-116.458,79.382-178.868,23.32-36.556,50.693-63.11,76.595-82.216" fill="#292a2e"></path>
        <circle cx="439.67" cy="151.539" r="45.234" fill="#000000"></circle>
        <circle cx="439.67" cy="151.539" r="35.828" fill="#fff"></circle>
        <rect x="276.481" y="329.546" width="92.017" height="12.002" transform="translate(231.076 -120.78) rotate(32.535)" fill="#292a2e"></rect>
        <path d="m534.308,104.603l-91.967-58.669C492.035,9.272,536.345,0,536.345,0c0,0,10.264,44.087-2.037,104.603Z" fill="#000000"></path>
        <path d="m352.916,310.411c-23.64,37.056-59.052,84.589-62.903,82.132-3.851-2.457,24.327-54.604,47.967-91.661,23.64-37.056,33.789-44.989,37.64-42.532s.936,15.004-22.704,52.06Z" fill="#000000"></path>
      </g>
      <g>
        <path d="m382.781,715.401l-45.26-139.128c-1.632-5.015-6.306-8.41-11.58-8.41h-184.392c-8.275,0-14.14,8.076-11.58,15.945l45.26,139.128c1.632,5.015,6.306,8.41,11.58,8.41h184.392c8.275,0,14.14-8.076,11.58-15.945Z" fill="#292a2e"></path>
        <rect x="340.291" y="720.065" width="134.57" height="11.281" rx="5.641" ry="5.641" fill="#292a2e"></rect>
        <circle cx="256.374" cy="656.391" r="19.339" fill="#fff"></circle>
      </g>
    </g>
  </g>
</svg>