<svg id="Layer_2" data-name="Layer 2" xmlns="http://www.w3.org/2000/svg" viewBox="0 0 686.853 514.916" style="width: 100%; height: 100%;">
  <g id="Layer_2-2" data-name="Layer 2">
    <g>
      <g>
        <path d="m636.369,318.177c0,73.228-24.741,140.679-66.317,194.445H66.317C24.741,458.856,0,391.406,0,318.177,0,142.447,142.461,0,318.192,0s318.178,142.447,318.178,318.177Z" fill="#fff"></path>
        <path d="m636.369,318.177c0,73.228-24.741,140.679-66.317,194.445H66.317C24.741,458.856,0,391.406,0,318.177,0,142.447,142.461,0,318.192,0s318.178,142.447,318.178,318.177Z" fill="#000000" opacity=".1"></path>
      </g>
      <g>
        <rect x="344.379" y="4.069" width="341.593" height="89.163" rx="44.581" ry="44.581" fill="#fff"></rect>
        <path d="m641.391,94.112h-252.431c-25.067,0-45.461-20.394-45.461-45.462S363.893,3.189,388.96,3.189h252.431c25.068,0,45.462,20.394,45.462,45.461s-20.394,45.462-45.462,45.462ZM388.96,4.949c-24.097,0-43.701,19.604-43.701,43.701s19.604,43.702,43.701,43.702h252.431c24.098,0,43.702-19.604,43.702-43.702s-19.604-43.701-43.702-43.701h-252.431Z" fill="#262626"></path>
      </g>
      <g>
        <polygon points="391.012 25.226 398.526 40.094 415.014 42.633 403.219 54.027 406.198 70.315 391.393 62.489 376.746 70.016 379.392 53.785 367.361 42.15 383.8 39.945 391.012 25.226" fill="#000000"></polygon>
        <polygon points="452.237 25.226 459.751 40.094 476.239 42.633 464.444 54.027 467.423 70.315 452.618 62.489 437.971 70.016 440.617 53.785 428.586 42.15 445.026 39.945 452.237 25.226" fill="#000000"></polygon>
        <polygon points="513.462 25.226 520.977 40.094 537.465 42.633 525.669 54.027 528.648 70.315 513.844 62.489 499.197 70.016 501.842 53.785 489.811 42.15 506.251 39.945 513.462 25.226" fill="#000000"></polygon>
        <polygon points="574.687 25.226 582.202 40.094 598.69 42.633 586.894 54.027 589.873 70.315 575.069 62.489 560.422 70.016 563.068 53.785 551.036 42.15 567.476 39.945 574.687 25.226" fill="#000000"></polygon>
        <polygon points="635.913 25.226 643.427 40.094 659.915 42.633 648.12 54.027 651.099 70.315 636.294 62.489 621.647 70.016 624.293 53.785 612.262 42.15 628.701 39.945 635.913 25.226" fill="#000000" opacity=".2"></polygon>
      </g>
      <g>
        <g>
          <path d="m180.545,118.208s.359,38.687-6.072,50.658c-18.515,34.464-22.99,60.86-1.17,79.082,21.82,18.222,153.275,10.321,160.443-35.158,6.035-38.288-12.208-41.23-18.522-72.114-2.857-13.974-10.143-43.195-10.143-43.195" fill="#0a0a0a"></path>
          <path id="sk" d="m296.374,210.26c-.227-.032-3.145,41.8-51.734,37.691-33.638-2.839-45.303-38.667-46.074-38.674,3.637-.737,9.759-1.801,11.379-2.646,5.327-2.798,11.914-5.7,13.719-15.977,1.041-5.923-.343-36.291.228-42.289l51.562,12.021c-.842,12.671-6.172,42.013,11.49,47.382,2.939.888,6.106,1.709,9.431,2.492Z" fill="#ff9e85"></path>
          <path id="sh" d="m275.845,195.651c-.71-2.343-1.126-4.379-1.479-8.034-.63-6.537-.205-12.538.514-18.649-10.425-1.488-20.405-5.973-28.44-12.781-.993,3.534-6.416,18.967-4.986,22.349,2.701,6.392,15.58,16.938,34.391,17.116Z" fill="#0c0c0c" opacity=".22"></path>
          <path d="m270.316,182.623c-20.21,3.237-42.641-3.602-49.775-30.341l-10.821-23.791c-7.133-26.739,1.128-52.162,26.304-58.878h0c25.176-6.717,46.308.21,53.441,26.95,0,0,4.313,15.282,5.188,20.494,3.301,19.655,6.327,60.655-24.338,65.567Z" fill="#ff9e85"></path>
          <path id="e1_eb" d="m290.021,112.379c-.029.887-3.347,1.039-7.804.671-4.457-.368-8.419-.901-8.337-2.003.104-1.391,3.821-2.22,8.278-1.852,4.457.368,7.908,1.789,7.863,3.184Z" fill="#0a0a0a"></path>
          <path d="m189.924,138.526l29.333,5.81c16.816-8.294,13.09-50.384,13.09-50.384,0,0,22.57,18.968,72.734,3.53,0,0-15.316-68.143-89.171-41.889-23.814,8.466-39.285,36.509-34.696,69.085,3.216,22.829,8.71,13.848,8.71,13.848Z" fill="#0a0a0a"></path>
          <path d="m219.894,160.347c-7.651,2.041-15.844-.127-18.885-11.652-2.02-7.656,3.843-14.013,11.494-16.055l5.31,4.075,8.659,21.877-6.578,1.755Z" fill="#ff9e85"></path>
          <g>
            <circle id="e1_eye" cx="284.51" cy="120.292" r="2.834" transform="translate(-8.082 21.267) rotate(-4.221)" fill="#0a0a0a"></circle>
            <g id="e1_n">
              <path d="m271.85,144.769c-.572.042-1.094-.354-1.198-.93-.111-.616.298-1.206.915-1.316l5.942-1.068-4.568-11.688c-.227-.583.061-1.241.644-1.469.583-.227,1.24.06,1.468.643l5.069,12.973c.123.316.098.67-.067.966s-.455.502-.789.562l-7.299,1.312c-.039.007-.079.012-.118.015Z" fill="#0a0a0a"></path>
            </g>
            <g id="e1_m">
              <path d="m267.524,158.722c-10.249.756-13.755-5.212-13.914-5.492-.308-.545-.116-1.236.429-1.545.541-.307,1.23-.117,1.541.423.148.254,3.726,6.105,14.904,3.925.627-.125,1.211.282,1.331.896.12.615-.282,1.21-.895,1.33-1.206.235-2.337.385-3.395.463Z" fill="#0a0a0a"></path>
            </g>
            <path id="e1_eb-2" data-name="e1_eb" d="m255.647,114.322c.334.822-2.637,2.308-6.86,3.78s-8.061,2.593-8.432,1.552c-.469-1.314,2.592-3.579,6.814-5.052,4.223-1.472,7.953-1.573,8.478-.28Z" fill="#0a0a0a"></path>
            <circle id="e1_eye-2" data-name="e1_eye" cx="256.298" cy="124.186" r="2.834" transform="translate(-8.445 19.201) rotate(-4.221)" fill="#0a0a0a"></circle>
          </g>
          <path d="m201.634,128.048l.441,10.81c1.866-2.614,4.698-4.545,8.1-5.207.845-.176,1.693-.228,2.525-.219,5.458,3.705,2.345,11.437,6.556,10.903,2.391-.303,7.447-6.374,8.499-9.987.667-2.29-5.962-10.398-6.108-12.78" fill="#0a0a0a"></path>
        </g>
        <polygon points="141.27 461.628 135.365 513.916 349.464 513.916 346.162 461.299 141.27 461.628" fill="#262626"></polygon>
        <path id="b_1_b" d="m242.732,238.051c-34.092-1.607-35.527-30.544-35.527-30.544,0,0-16.892,1.092-28.121,2.611-18.384,2.487-37.874,8.797-46.718,24.085-6.359,10.991-7.889,12.98-2.105,74.998,4.188,44.906,11.01,152.426,11.01,152.426l204.892-.328s9.117-137.883,10.837-158.097c3.283-38.589,8.465-92.979-2.535-95.694-12.815-3.163-54.647,2.037-68.178.002-.228-.034,2.873,32.73-43.555,30.541Z" fill="#000000"></path>
        <g>
          <path d="m605.862,86.794c1.252-2.825,4.622-4.05,7.413-2.634,2.617,1.327,3.561,4.622,2.372,7.305l-2.965,6.691,19.048-16.821c2.085-1.907,5.864-2.914,7.849-.434,1.737,1.899,1.857,4.694.456,6.726.023.019.05.032.068.056.015.016.02.037.032.054l3.216-2.941c2.468-2.257,6.457-1.801,8.304,1.203,1.373,2.232.796,5.162-1.138,6.93l-1.369,1.252c.018.058.027.119.024.179,2.228-1.256,5.128-.809,6.845,1.278,1.865,2.266,1.407,5.663-.759,7.643l-3.364,3.076c.155-.017.315.03.43.156.066.075.096.164.111.255,2.18-.534,4.612.301,5.939,2.46,1.373,2.232.796,5.162-1.138,6.93l-28.677,26.226c-8.207,7.505-20.146,9.281-30.182,4.488l-15.795-7.544,23.278-52.536Z" fill="#ff9e85"></path>
          <g fill="none" opacity=".2">
            <path d="m621.268,104.374c.184.199.494.215.698.034l18.094-16.02c.206-.183.226-.499.043-.706-.156-.208-.5-.226-.706-.043l-18.094,16.02c-.206.183-.226.499-.043.706l.008.009Z" fill="#0c0c0c"></path>
          </g>
          <g fill="none" opacity=".2">
            <path d="m628.114,112.549c.184.199.494.215.698.034l20.193-17.878c.206-.183.226-.499.043-.706-.169-.188-.499-.225-.706-.043l-20.193,17.878c-.206.183-.226.499-.043.706l.008.009Z" fill="#0c0c0c"></path>
          </g>
          <g fill="none" opacity=".2">
            <path d="m635.476,121.446c.184.199.494.215.698.034l16.108-14.261c.206-.183.226-.499.043-.706-.189-.205-.499-.225-.706-.043l-16.108,14.261c-.206.183-.226.499-.043.706l.008.009Z" fill="#0c0c0c"></path>
          </g>
        </g>
        <path d="m587.597,105.337l-108.581,88.949-150.311,13.56c-20.637,1.746-35.952,19.89-34.206,40.527,1.655,19.562,18.045,34.342,37.324,34.342,1.061,0,2.127-.045,3.203-.136l162.109-14.558c7.679-.649,14.971-3.649,20.885-8.59l113.72-100.887-44.143-53.207Z" fill="#000000"></path>
        <polygon points="599.031 81.563 621.645 75.225 629.656 53.112 642.197 72.535 665.538 72.858 650.675 91.2 657.09 113.513 635.363 105.425 615.987 118.892 617.421 95.552 599.031 81.563" fill="#000000"></polygon>
        <path d="m611.682,100.655l3.965-9.19c1.189-2.683.245-5.978-2.372-7.305-2.791-1.416-6.162-.19-7.413,2.634" fill="#ff9e85"></path>
        <g>
          <path d="m328.185,376.411c-.121,2.933-2.725,5.162-5.656,5.187l-4.557.054c.122.085.215.236.212.4.002.104-.031.188-.084.267,1.982,1.053,3.233,3.294,2.784,5.795-.47,2.578-2.85,4.371-5.473,4.407l-38.85.42c-11.121.128-21.212-6.514-25.486-16.773l-6.75-16.156,20.675-4.399.493-5.154,31.217-14.081c2.817-1.269,6.144.06,7.282,2.976,1.062,2.739-.429,5.825-3.103,7.029l-6.676,3.008,25.413.171c2.829-.031,6.316,1.736,6.14,4.902.027,2.579-1.74,4.748-4.139,5.324.002.031.006.053.008.085l-.016.058,4.358-.047c3.349-.034,6.02,2.961,5.387,6.438-.46,2.58-2.85,4.371-5.461,4.4l-1.864.027c-.023.046-.058.098-.09.141,2.493.55,4.347,2.823,4.238,5.52Z" fill="#ff9e85"></path>
          <g>
            <g fill="none" opacity=".2">
              <path d="m296.466,359.752c.005.271.225.49.497.491l24.167.126c.276.001.501-.221.503-.498.022-.259-.222-.501-.498-.503l-24.167-.126c-.276-.001-.501.221-.503.498v.012Z" fill="#0c0c0c"></path>
            </g>
            <g fill="none" opacity=".2">
              <path d="m296.116,370.409c.005.271.225.49.497.491l26.97.141c.276.001.501-.221.503-.498,0-.252-.222-.501-.498-.503l-26.97-.141c-.276-.001-.501.221-.503.498v.012Z" fill="#0c0c0c"></path>
            </g>
            <g fill="none" opacity=".2">
              <path d="m295.671,381.949c.005.271.225.49.497.491l21.514.113c.276.001.501-.221.503-.498-.004-.279-.222-.501-.498-.503l-21.514-.113c-.276-.001-.501.221-.503.498v.012Z" fill="#0c0c0c"></path>
            </g>
          </g>
        </g>
        <path d="m274.552,404.505l-162.665,28.976c-3.188.847-6.421,1.258-9.625,1.258-10.818,0-21.3-4.689-28.527-13.158-9.368-10.979-11.605-26.357-5.753-39.549l59.239-137.801c8.399-18.932,29.161-27.471,48.09-19.072,18.932,8.398,27.47,30.553,19.072,49.484l-34.781,82.465,108.787-14.456,6.163,61.853Z" fill="#000000"></path>
        <path d="m139.92,429.178c.046,0,.093-.006.139-.02l134.632-24.172c.261-.075.414-.345.345-.606l-6.163-63.854c-.069-.263-.339-.423-.596-.361l-107.773,16.222,34.331-81.526c.119-.249.014-.548-.234-.668-.25-.117-.548-.014-.668.234l-34.781,82.465c-.083.174-.06.379.061.529.121.149.318.219.503.175l108.313-16.347,5.917,62.912-134.163,24.036c-.266.077-.418.354-.342.619.063.219.263.361.48.361Z" fill="#0c0c0c"></path>
        <path d="m146.137,359.407c.035,0,.07-.004.106-.012l13.465-1.799c.27-.059.44-.325.382-.595s-.326-.441-.595-.382l-13.465,1.799c-.27.059-.44.325-.382.595.051.233.258.394.488.394Z" fill="#0c0c0c"></path>
        <path d="m358.905,281.059c.258,0,.478-.199.497-.462l2.228-28.839c.021-.274-.185-.516-.46-.536-.253-.035-.516.184-.536.46l-2.228,28.839c-.021.275.185.516.46.536.013.002.025.002.039.002Z" fill="#0c0c0c"></path>
      </g>
      <path d="m60.12,514.916h516.129c.552,0,1-.448,1-1,0-.552-.448-1-1-1H60.12c-.552,0-1,.448-1,1,0,.552.448,1,1,1Z" fill="#292a2e"></path>
    </g>
  </g>
</svg>