<svg id="Layer_2" data-name="Layer 2" xmlns="http://www.w3.org/2000/svg" viewBox="0 0 805.23 768.88" style="width: 100%; height: 100%;">
  <g id="Layer_2-2" data-name="Layer 2">
    <g>
      <g>
        <g>
          <rect x="232.666" y="7.902" width="453.17" height="527.791" rx="16.26" ry="16.26" transform="translate(918.502 543.594) rotate(-180)" fill="#fff"></rect>
          <path d="m231.666,519.433V24.161c0-9.517,7.743-17.26,17.26-17.26h420.65c9.517,0,17.26,7.743,17.26,17.26v495.271c0,9.517-7.743,17.26-17.26,17.26H248.926c-9.517,0-17.26-7.743-17.26-17.26ZM248.926,8.902c-8.414,0-15.26,6.846-15.26,15.26v495.271c0,8.414,6.846,15.26,15.26,15.26h420.65c8.414,0,15.26-6.846,15.26-15.26V24.161c0-8.414-6.846-15.26-15.26-15.26H248.926Z" fill="#292a2e"></path>
        </g>
        <g>
          <path d="m334.996,768.476c-.048,0-.096-.003-.145-.01-.547-.079-.926-.586-.846-1.133l33.442-230.784c.078-.546.58-.928,1.133-.846.547.079.926.586.846,1.133l-33.442,230.784c-.071.498-.499.856-.988.856Z" fill="#292a2e"></path>
          <path d="m583.505,768.476c-.489,0-.917-.358-.988-.856l-33.442-230.784c-.08-.547.299-1.054.846-1.133.54-.081,1.055.299,1.133.846l33.442,230.784c.08.547-.299,1.054-.846,1.133-.049.007-.097.01-.145.01Z" fill="#292a2e"></path>
        </g>
        <g fill="none" opacity=".1">
          <rect x="266.906" y="46.043" width="384.689" height="216.255" rx="11.512" ry="11.512" transform="translate(918.502 308.34) rotate(-180)" fill="#000000"></rect>
        </g>
        <g>
          <g fill="none" opacity=".1">
            <path d="m266.5,485.744v-186.139c0-6.643,5.405-12.048,12.048-12.048h360.406c6.644,0,12.048,5.405,12.048,12.048v186.139c0,6.644-5.405,12.049-12.048,12.049h-360.406c-6.643,0-12.048-5.405-12.048-12.049Z" fill="#000000"></path>
          </g>
          <g>
            <rect id="gra5_b" x="602.97" y="329.779" width="11.051" height="140.539" rx="1.949" ry="1.949" transform="translate(1216.991 800.097) rotate(-180)" fill="#fff"></rect>
            <rect id="gra5_b-2" data-name="gra5_b" x="614.021" y="373.92" width="11.051" height="96.399" rx="1.949" ry="1.949" transform="translate(1239.094 844.238) rotate(-180)" fill="#000000" opacity=".3"></rect>
          </g>
          <g>
            <rect id="gra5_b-3" data-name="gra5_b" x="514.53" y="452.536" width="11.051" height="17.783" rx="1.949" ry="1.949" transform="translate(1040.111 922.854) rotate(-180)" fill="#fff"></rect>
            <rect id="gra5_b-4" data-name="gra5_b" x="525.581" y="365.983" width="11.051" height="104.335" rx="1.949" ry="1.949" transform="translate(1062.213 836.301) rotate(-180)" fill="#000000" opacity=".3"></rect>
          </g>
          <g>
            <rect id="gra5_b-5" data-name="gra5_b" x="558.75" y="386.196" width="11.051" height="84.122" rx="1.949" ry="1.949" transform="translate(1128.551 856.514) rotate(-180)" fill="#fff"></rect>
            <rect id="gra5_b-6" data-name="gra5_b" x="569.801" y="415.262" width="11.051" height="55.056" rx="1.949" ry="1.949" transform="translate(1150.654 885.58) rotate(-180)" fill="#000000" opacity=".3"></rect>
          </g>
          <g>
            <rect id="gra5_b-7" data-name="gra5_b" x="381.87" y="356.959" width="11.051" height="113.359" rx="1.949" ry="1.949" transform="translate(774.79 827.277) rotate(-180)" fill="#fff"></rect>
            <rect id="gra5_b-8" data-name="gra5_b" x="392.921" y="398.695" width="11.051" height="71.624" rx="1.949" ry="1.949" transform="translate(796.893 869.013) rotate(-180)" fill="#000000" opacity=".3"></rect>
          </g>
          <g>
            <rect id="gra5_b-9" data-name="gra5_b" x="470.31" y="374.642" width="11.051" height="95.676" rx="1.949" ry="1.949" transform="translate(951.671 844.96) rotate(-180)" fill="#fff"></rect>
            <rect id="gra5_b-10" data-name="gra5_b" x="481.361" y="385.474" width="11.051" height="84.844" rx="1.949" ry="1.949" transform="translate(973.773 855.792) rotate(-180)" fill="#000000" opacity=".3"></rect>
          </g>
          <g>
            <rect id="gra5_b-11" data-name="gra5_b" x="426.09" y="329.779" width="11.051" height="140.539" rx="1.949" ry="1.949" transform="translate(863.231 800.097) rotate(-180)" fill="#fff"></rect>
            <rect id="gra5_b-12" data-name="gra5_b" x="437.141" y="336.549" width="11.051" height="133.769" rx="1.949" ry="1.949" transform="translate(885.333 806.867) rotate(-180)" fill="#000000" opacity=".3"></rect>
          </g>
          <g>
            <rect id="gra5_b-13" data-name="gra5_b" x="337.649" y="329.779" width="11.051" height="140.539" rx="1.949" ry="1.949" transform="translate(686.35 800.097) rotate(-180)" fill="#fff"></rect>
            <rect id="gra5_b-14" data-name="gra5_b" x="348.701" y="373.92" width="11.051" height="96.399" rx="1.949" ry="1.949" transform="translate(708.453 844.238) rotate(-180)" fill="#000000" opacity=".3"></rect>
          </g>
          <g>
            <rect id="gra5_b-15" data-name="gra5_b" x="293.429" y="386.196" width="11.051" height="84.122" rx="1.949" ry="1.949" transform="translate(597.91 856.514) rotate(-180)" fill="#fff"></rect>
            <rect id="gra5_b-16" data-name="gra5_b" x="304.481" y="415.262" width="11.051" height="55.056" rx="1.949" ry="1.949" transform="translate(620.013 885.58) rotate(-180)" fill="#000000" opacity=".3"></rect>
          </g>
        </g>
        <g>
          <path id="gra15_a" d="m625.172,115.443v119.628c0,1.06-.859,1.919-1.919,1.919h-328.005c-1.06,0-1.919-.859-1.919-1.919v-63.509c0-.685.366-1.319.959-1.662l58.074-33.53c.603-.348,1.346-.342,1.944.015l26.143,15.625c.669.4,1.513.355,2.136-.113l27.451-20.606c.571-.428,1.332-.505,1.976-.198l33.877,16.112c.742.353,1.626.194,2.199-.394l37.608-38.618c.673-.691,1.753-.775,2.525-.197l24.421,18.287c.73.546,1.743.504,2.425-.102l15.979-14.204c.663-.59,1.645-.647,2.373-.139l22.681,15.832c.668.466,1.558.46,2.219-.016l39.213-28.217c.617-.444,1.437-.482,2.092-.097l24.602,14.448c.587.345.947.974.947,1.654Z" fill="#000000" opacity=".2"></path>
          <g id="gra15_a-2" data-name="gra15_a">
            <path d="m294.433,169.914c.163,0,.328-.041.479-.128l58.254-33.634,27.733,16.575c.334.2.756.177,1.068-.056l28.945-21.728,35.641,16.952c.371.176.812.097,1.1-.197l39.153-40.206,26.35,19.731c.366.274.872.252,1.212-.051l17.716-15.748,24.417,17.043c.334.233.78.23,1.109-.008l40.825-29.376,25.15,14.771c.456.267,1.045.116,1.313-.341.268-.457.115-1.045-.341-1.313l-25.69-15.087c-.328-.193-.737-.173-1.046.049l-40.78,29.344-24.48-17.087c-.363-.254-.853-.226-1.186.069l-17.696,15.73-26.397-19.766c-.385-.289-.926-.247-1.263.098l-39.262,40.318-35.545-16.906c-.321-.154-.703-.115-.988.099l-28.894,21.69-27.664-16.533c-.298-.178-.671-.181-.972-.007l-58.742,33.915c-.459.265-.616.852-.351,1.311.178.308.5.48.832.48Z" fill="#000000" opacity=".61"></path>
          </g>
        </g>
      </g>
      <g>
        <g>
          <path d="m81.161,724.007s4.515,23.404,26.428,24.708c21.913,1.304,17.161,18.761,17.161,18.761H41.011v-41.837s40.15-1.632,40.15-1.632Z" fill="#000000"></path>
          <path d="m35.332,297.077s6.263-7.036,6.207,8.924c-.207,59.529-4.224,432.943-4.224,432.943l55.026-.462,33.333-443.823-90.342,2.419Z" fill="#262626"></path>
          <path d="m175.122,724.007s4.515,23.404,26.428,24.708c21.913,1.304,17.161,18.761,17.161,18.761h-83.739v-41.837s40.15-1.632,40.15-1.632Z" fill="#000000"></path>
          <path d="m185.765,301.699s6.874,203.456,6.16,213.4l-6.464,222.303-54.117,1-8.726-231.343s-5.72-63.816-21.139-123.073c-7.912-30.406-12.613-61.557-14.168-92.938h0s98.454,10.651,98.454,10.651Z" fill="#262626"></path>
          <path d="m114.373,445.949l4.513-69.009s4.635,28.689,4.635,53.417c0,12.087-2.49,59.942-2.49,59.942l-6.658-44.35Z" fill="#0a0a0a"></path>
          <path d="m34.734,297.07l-.18.01s.13-3.47.18-.01Z" fill="#333"></path>
        </g>
        <g>
          <path d="m34.96,297.07l-.18.01s.13-3.47.18-.01Z" fill="#333"></path>
          <g>
            <path d="m336.486,131.932c-.726-1.423-2.205-2.099-3.628-1.921,0-.064-.001-.13-.04-.186-.071-.098-.181-.126-.291-.119l2.461-1.764c1.487-1.066,2.095-3.091,1.218-4.697-.909-1.666-2.871-2.268-4.497-1.591.006-.035-.017-.068-.022-.104l1.011-.725c1.399-1.003,2.003-2.868,1.282-4.431-.971-2.103-3.537-2.711-5.322-1.431l-2.333,1.672c-.007-.014,0-.03-.009-.043-.01-.017-.034-.017-.048-.032,1.08-1.216,1.222-3.054.234-4.431-1.101-1.772-3.644-1.41-5.152-.329l-13.732,9.486,2.455-4.132c.984-1.657.626-3.879-.978-4.949-1.71-1.141-4.003-.604-5.04,1.14l-13.402,22.563c-3.269,5.504-1.567,12.609,3.842,16.034h0c6.171,3.908,14.096,3.68,20.032-.575l20.738-14.864c1.368-.981,1.987-3.071,1.223-4.57Z" fill="#ff9e85"></path>
            <g fill="none" opacity=".25">
              <path d="m312.732,126.011c.105.144.306.178.453.077l13.048-9.037c.149-.103.186-.308.083-.457-.086-.148-.308-.186-.457-.083l-13.048,9.037c-.149.103-.186.308-.083.457l.005.006Z" fill="#0c0c0c"></path>
            </g>
            <g fill="none" opacity=".25">
              <path d="m316.559,131.875c.105.144.306.178.453.077l14.561-10.086c.149-.103.186-.308.083-.457-.095-.136-.308-.186-.457-.083l-14.561,10.086c-.149.103-.186.308-.083.457l.005.006Z" fill="#0c0c0c"></path>
            </g>
            <g fill="none" opacity=".25">
              <path d="m320.667,138.251c.105.144.306.178.453.077l11.616-8.045c.149-.103.186-.308.083-.457-.107-.148-.308-.186-.457-.083l-11.616,8.045c-.149.103-.186.308-.083.457l.005.006Z" fill="#0c0c0c"></path>
            </g>
          </g>
          <path d="m282.743,130.77l-39.359,67.032-48.025-62.992-39.883,35.957,68.111,88.211.446.628c2.375,3.262,5.515,6.044,9.328,8.049,13.306,6.998,29.766,1.884,36.763-11.423l55.968-101.354-43.35-24.108Z" fill="#000000"></path>
          <path d="m239.526,205.863c-.077,0-.154-.018-.228-.055-.246-.125-.344-.427-.218-.673l3.858-7.561c.125-.246.428-.343.673-.218.246.125.344.427.218.673l-3.858,7.561c-.088.173-.264.272-.445.272Z" fill="#0c0c0c"></path>
          <rect x="181.885" y="207.535" width="21.206" height="1" transform="translate(-26.12 388.426) rotate(-86.752)" fill="#0c0c0c"></rect>
          <g>
            <g>
              <path d="m65.571,47.386s-1.851,28.708-7.275,37.234c-15.616,24.544-20.379,43.873-5.196,58.579,15.183,14.707,113.097,16.042,120.902-17.29,6.57-28.062-6.796-31.243-9.788-54.49-1.354-10.519-5.158-32.586-5.158-32.586" fill="#0a0a0a"></path>
              <path id="sk" d="m149.075,120.581c-.169-.022-2.045,31.102-38.202,28.388-25.031-1.875-33.956-28.432-34.53-28.432,2.699-.574,7.243-1.408,8.442-2.047,3.941-2.118,8.818-4.322,10.089-11.976.732-4.412-.51-26.981-.128-31.445l38.423,8.576c-.537,9.427-4.294,31.282,8.876,35.149,2.191.64,4.552,1.228,7.03,1.787Z" fill="#ff9e85"></path>
              <path id="sh" d="m133.708,109.862c-.544-1.737-.868-3.248-1.156-5.963-.515-4.856-.241-9.321.251-13.87-7.762-1.033-15.214-4.298-21.236-9.304-.713,2.635-5.21,12.362-4.124,14.866,2.054,4.734,12.276,14.271,26.264,14.271Z" fill="#0c0c0c" opacity=".22"></path>
              <path d="m128.616,100.066c-15.164,1.295-31.424-5.005-35.25-25.224l-6.722-18.235c-3.826-20.219,3.691-38.619,22.728-42.222h0c19.037-3.603,34.328,2.69,38.155,22.909,0,0,2.362,11.568,2.726,15.481,1.372,14.756,1.372,45.325-21.636,47.29Z" fill="#ff9e85"></path>
              <path id="e1_eb" d="m147.073,49.055c-.07.656-2.539.587-5.824.071s-6.194-1.129-6.073-1.942c.154-1.026,2.955-1.437,6.24-.92,3.285.517,5.766,1.759,5.656,2.791Z" fill="#0a0a0a"></path>
              <path d="m71.414,62.967l21.434,5.913c12.924-5.23,12.464-36.646,12.464-36.646,0,0,15.699,15.301,53.743,6.599,0,0-7.628-51.37-63.833-35.943-18.123,4.974-31.13,24.923-29.51,49.331,1.135,17.105,5.701,10.745,5.701,10.745Z" fill="#0a0a0a"></path>
              <path d="m92.444,80.788c-5.785,1.095-11.742-.961-13.367-9.674-1.079-5.788,3.617-10.181,9.402-11.276l3.715,3.312,5.224,16.697-4.974.941Z" fill="#ff9e85"></path>
              <g>
                <circle id="e1_eye" cx="143.507" cy="55.297" r="2.107" fill="#0a0a0a"></circle>
                <g id="e1_n">
                  <path d="m131.56,71.995c-.426,0-.792-.322-.837-.755-.049-.463.287-.878.751-.926l4.464-.467-2.748-8.918c-.137-.445.113-.917.558-1.054.445-.137.916.112,1.054.557l3.049,9.898c.074.241.036.503-.103.713s-.365.347-.616.374l-5.484.573c-.03.003-.059.005-.088.005Z" fill="#0a0a0a"></path>
                </g>
                <g id="e1_m">
                  <path d="m127.853,82.189c-7.641,0-9.915-4.618-10.017-4.834-.198-.421-.018-.923.403-1.122.418-.198.919-.02,1.12.398.095.196,2.429,4.731,10.837,3.726.472-.058.883.275.938.737.055.462-.275.882-.737.937-.907.108-1.754.158-2.543.158Z" fill="#0a0a0a"></path>
                </g>
                <path id="e1_eb-2" data-name="e1_eb" d="m121.476,48.614c.202.628-2.082,1.567-5.294,2.428s-6.119,1.481-6.338.689c-.276-1,2.118-2.512,5.33-3.373,3.212-.861,5.984-.731,6.302.256Z" fill="#0a0a0a"></path>
                <circle id="e1_eye-2" data-name="e1_eye" cx="121.751" cy="56.827" r="2.108" fill="#0a0a0a"></circle>
              </g>
              <path d="m80.671,55.837l-.264,8.041c1.527-1.836,3.732-3.113,6.292-3.418.636-.084,1.268-.076,1.885-.024,3.844,3.046,1.113,8.609,4.265,8.444,1.79-.094,5.871-4.319,6.849-6.941.62-1.662-3.852-8.037-3.83-9.811" fill="#0a0a0a"></path>
            </g>
            <path d="m193.737,188.768c-1.135,13.332-6.655,96.51-7.746,112.931H41.619c-.849-14.811-10.664-79.575-13.885-108.539-3.075-27.638-9.108-41.475-4.686-49.646,7.226-13.354,26.972-21.071,40.436-22.894,8.222-1.113,20.587-1.911,20.587-1.911,0,0,1.047,21.181,26.013,22.359,33.986,1.603,31.716-22.359,31.884-22.359,5.506,0,36.958,3.485,44.653,8.046,20.968,12.417,9.525,33.759,7.116,62.012Z" fill="#000000"></path>
            <path d="m287.449,198.081l-13.917,67.64c-.582,2.83-3.062,4.87-5.952,4.894l-95.826.816c-3.903.033-6.843-3.542-6.056-7.365l13.917-67.64c.582-2.83,3.062-4.87,5.952-4.894l95.826-.816c3.903-.033,6.843,3.542,6.056,7.365Z" fill="#292a2e"></path>
            <g>
              <path d="m198.094,246.127c.17,1.82-1.18,3.44-2.97,3.84l-2.95.65c.1.04.19.11.22.23.01.06-.01.13-.04.18,1.38.4,2.48,1.6,2.58,3.2.12,1.67-1.27,3.35-2.91,3.72l-24.91,5.53c-1.29.29-2.59.43-3.88.43-5.82,0-11.38-2.84-14.77-7.77-3.63-5.27-2.41-12.48,2.76-16.25l21.19-15.49c.48-.35,1.03-.57,1.58-.65l-1.95,9.47.52-.12.11-.02,16.25-3.31c1.81-.4,4.29.26,4.61,2.32.36,1.66-.49,3.29-1.96,3.99.01.01.03.02.03.04.01.02-.01.03-.01.05l2.81-.62c2.14-.48,4.26,1.09,4.33,3.4.05,1.72-1.24,3.2-2.92,3.57l-1.21.27c-.01.04,0,.08-.02.11,1.76.01,3.33,1.34,3.51,3.23Z" fill="#ff9e85"></path>
              <g fill="none" opacity=".25">
                <path d="m175.417,239.449c.04.173.211.284.386.248l15.548-3.189c.178-.037.292-.21.256-.388-.021-.17-.21-.292-.388-.256l-15.548,3.189c-.178.037-.292.21-.256.388l.002.008Z" fill="#0c0c0c"></path>
              </g>
              <g fill="none" opacity=".25">
                <path d="m176.634,246.345c.04.173.211.284.386.248l17.352-3.558c.178-.037.292-.21.256-.388-.034-.162-.21-.292-.388-.256l-17.352,3.558c-.178.037-.292.21-.256.388l.002.008Z" fill="#0c0c0c"></path>
              </g>
              <g fill="none" opacity=".25">
                <path d="m177.909,253.822c.04.173.211.284.386.248l13.841-2.838c.178-.037.292-.21.256-.388-.04-.179-.21-.292-.388-.256l-13.841,2.838c-.178.037-.292.21-.256.388l.002.008Z" fill="#0c0c0c"></path>
              </g>
            </g>
            <path id="b_4_b" d="m165.571,273.333l-135.145,24.423c-.993.108-1.985.161-2.973.161-7.514,0-14.753-3.087-19.968-8.615-5.901-6.256-8.531-14.915-7.104-23.395l18.92-112.457c2.516-14.953,16.674-25.032,31.63-22.519,14.953,2.516,25.035,16.677,22.519,31.63l-12.901,77.415,99.081-12.443,5.941,45.802Z" fill="#000000"></path>
            <g id="b_4_b-2" data-name="b_4_b">
              <path d="m30.425,298.255c-.237,0-.447-.169-.491-.411-.049-.271.132-.532.403-.581l134.677-24.338-5.816-44.836-98.587,12.381c-.163.02-.313-.035-.423-.149s-.159-.272-.133-.429l8.201-49.478c.045-.271.3-.463.575-.411.272.045.456.303.411.575l-8.092,48.815,98.416-12.359c.268-.033.522.158.559.432l5.941,45.802c.034.265-.145.509-.407.557l-135.145,24.423c-.03.005-.06.008-.09.008Z" fill="#0c0c0c"></path>
            </g>
            <rect x="51.8" y="240.172" width="8.804" height="1.001" transform="translate(-37.336 11.909) rotate(-9.095)" fill="#0c0c0c"></rect>
          </g>
        </g>
      </g>
      <path d="m769.791,768.88H9.372c-.388,0-.702-.314-.702-.702s.314-.702.702-.702h760.419c.388,0,.702.314.702.702s-.314.702-.702.702Z" fill="#292a2e"></path>
      <g>
        <path d="m733.665,661.078c-.21,0-.421-.08-.581-.241-1.158-1.158-3.046-22.408-8.131-85.674-2.081-25.888-4.046-50.339-5.48-65.199-.102-1.061-.514-1.185-.649-1.225-1.963-.592-7.934,4.116-11.268,8.239-.285.353-.803.408-1.156.122-.353-.286-.408-.803-.122-1.156,2.205-2.726,9.389-9.872,13.019-8.779.732.22,1.64.857,1.813,2.642,1.435,14.873,3.401,39.331,5.482,65.226,3.09,38.446,6.591,82.002,7.741,84.745.232.321.203.772-.086,1.061-.161.161-.371.241-.581.241Z" fill="#000000"></path>
        <ellipse cx="702.76" cy="519.02" rx="31.654" ry="23.344" transform="translate(-170.2 553.581) rotate(-38.715)" fill="#000000"></ellipse>
        <ellipse cx="702.76" cy="519.02" rx="31.654" ry="23.344" transform="translate(-170.2 553.581) rotate(-38.715)" fill="#fff" opacity=".2"></ellipse>
        <path d="m681.885,541.373c-.092,0-.185-.031-.262-.095-.175-.145-.199-.404-.054-.579l38.875-46.879c.144-.174.403-.199.579-.054.175.145.199.404.054.579l-38.875,46.879c-.081.098-.198.149-.317.149Z" fill="#fff"></path>
        <path d="m742.144,651.028c-.09,0-.181-.015-.27-.046-.429-.149-.655-.617-.506-1.046l14.602-41.995c.876-2.52,2.948-4.398,5.541-5.024,2.595-.627,5.294.1,7.224,1.943l7.72,7.375c.328.313.34.834.026,1.162-.314.328-.834.34-1.162.026l-7.72-7.375c-1.523-1.455-3.654-2.029-5.702-1.534-2.047.494-3.682,1.977-4.374,3.966l-14.602,41.995c-.118.339-.436.552-.776.552Z" fill="#000000"></path>
        <ellipse cx="778.378" cy="610.662" rx="23.344" ry="31.654" transform="translate(-210.946 614.944) rotate(-38.363)" fill="#000000"></ellipse>
        <path d="m727.031,658.4c-.372,0-.708-.254-.799-.631l-24.505-102.461c-.347-1.453-1.421-2.531-2.872-2.886-1.451-.353-2.902.109-3.879,1.238l-7.554,8.729c-.297.343-.817.381-1.16.084-.343-.297-.381-.816-.084-1.16l7.554-8.729c1.369-1.581,3.48-2.255,5.512-1.76,2.031.496,3.595,2.067,4.082,4.101l24.505,102.461c.106.442-.167.885-.608.991-.064.015-.128.022-.192.022Z" fill="#000000"></path>
        <ellipse cx="694.987" cy="581.173" rx="31.654" ry="23.344" transform="translate(3.893 1166.97) rotate(-80.189)" fill="#000000"></ellipse>
        <path d="m733.666,661.078c-.034,0-.067-.002-.102-.006-.451-.056-.771-.466-.716-.916l15.648-127.051c.353-2.865,2.285-5.176,5.043-6.03,2.757-.854,5.658-.041,7.568,2.123l17.886,20.257c.301.34.268.86-.072,1.16-.34.301-.86.268-1.16-.072l-17.886-20.257c-1.477-1.673-3.718-2.301-5.849-1.641-2.131.66-3.625,2.446-3.897,4.66l-15.648,127.051c-.051.417-.406.722-.815.722Z" fill="#000000"></path>
        <ellipse cx="769.639" cy="545.392" rx="23.344" ry="31.654" transform="translate(-80.136 954.879) rotate(-61.051)" fill="#000000"></ellipse>
        <ellipse cx="778.378" cy="610.662" rx="23.344" ry="31.654" transform="translate(-210.946 614.944) rotate(-38.363)" fill="#fff" opacity=".2"></ellipse>
        <ellipse cx="694.987" cy="581.173" rx="31.654" ry="23.344" transform="translate(3.893 1166.97) rotate(-80.189)" fill="#fff" opacity=".5"></ellipse>
        <ellipse cx="769.639" cy="545.392" rx="23.344" ry="31.654" transform="translate(-80.136 954.879) rotate(-61.051)" fill="#fff" opacity=".5"></ellipse>
        <polygon points="753.68 768.88 713.65 768.88 707.017 640.805 760.313 640.805 753.68 768.88" fill="#292a2e"></polygon>
        <polygon points="753.68 768.88 713.65 768.88 707.017 640.805 760.313 640.805 753.68 768.88" fill="#fff" opacity=".3"></polygon>
        <path d="m798.025,635.892c-.122,0-.242-.053-.323-.156l-39.292-49.639c-.141-.178-.111-.437.067-.578.179-.141.437-.11.578.067l39.292,49.639c.141.178.111.437-.067.578-.076.06-.166.089-.255.089Z" fill="#fff"></path>
        <path d="m794.725,564.69c-.084,0-.169-.026-.242-.079l-50.281-36.714c-.183-.134-.224-.391-.09-.574.134-.183.391-.224.574-.09l50.281,36.714c.183.134.224.391.09.574-.081.11-.206.169-.332.169Z" fill="#fff"></path>
        <path d="m687.554,611.832c-.035,0-.071-.004-.106-.014-.219-.058-.35-.284-.291-.503l16.006-59.97c.059-.22.288-.349.503-.291.219.058.35.284.291.503l-16.006,59.97c-.049.184-.215.305-.397.305Z" fill="#fff"></path>
      </g>
    </g>
  </g>
</svg>