<svg id="Layer_2" data-name="Layer 2" xmlns="http://www.w3.org/2000/svg" viewBox="0 0 722.206 507.854" style="width: 100%; height: 100%;">
  <g id="Layer_2-2" data-name="Layer 2">
    <g>
      <g>
        <rect x="103.704" y="1" width="594.118" height="447.981" rx="24.26" ry="24.26" transform="translate(801.526 449.981) rotate(-180)" fill="#fff"></rect>
        <path d="m673.562,449.98H127.964c-13.929,0-25.26-11.331-25.26-25.26V25.26c0-13.929,11.331-25.26,25.26-25.26h545.598c13.929,0,25.26,11.331,25.26,25.26v399.461c0,13.929-11.331,25.26-25.26,25.26ZM127.964,2c-12.825,0-23.26,10.435-23.26,23.26v399.461c0,12.825,10.435,23.26,23.26,23.26h545.598c12.825,0,23.26-10.435,23.26-23.26V25.26c0-12.825-10.435-23.26-23.26-23.26H127.964Z" fill="#292a2e"></path>
      </g>
      <g fill="none" opacity=".14">
        <path d="m283.029,83.856c-7.935-24.076-30.595-41.462-57.33-41.462-33.339,0-60.366,27.027-60.366,60.366s27.027,60.366,60.366,60.366c4.646,0,9.162-.542,13.506-1.536-1.96-5.949-3.036-12.299-3.036-18.904,0-28.694,20.026-52.694,46.86-58.83Z" fill="#000000"></path>
        <path d="m296.536,82.32c-4.646,0-9.162.542-13.506,1.536,1.961,5.948,3.036,12.299,3.036,18.904,0,28.694-20.026,52.694-46.86,58.83,7.935,24.076,30.595,41.462,57.33,41.462,33.339,0,60.366-27.027,60.366-60.366s-27.027-60.366-60.366-60.366Z" fill="#000000"></path>
      </g>
      <g fill="none" opacity=".22">
        <path d="m225.7,164.125c-33.838,0-61.366-27.528-61.366-61.365s27.528-61.366,61.366-61.366,61.365,27.528,61.365,61.366-27.528,61.365-61.365,61.365Zm0-120.731c-32.734,0-59.366,26.632-59.366,59.366s26.632,59.365,59.366,59.365,59.365-26.631,59.365-59.365-26.631-59.366-59.365-59.366Z" fill="#000000"></path>
        <path d="m296.535,204.052c-33.837,0-61.365-27.528-61.365-61.366s27.528-61.365,61.365-61.365,61.366,27.528,61.366,61.365-27.528,61.366-61.366,61.366Zm0-120.731c-32.734,0-59.365,26.631-59.365,59.365s26.631,59.366,59.365,59.366,59.366-26.632,59.366-59.366-26.632-59.365-59.366-59.365Z" fill="#000000"></path>
      </g>
      <path d="m721.206,507.854H27.155c-.552,0-1-.448-1-1s.448-1,1-1h694.051c.552,0,1,.448,1,1s-.448,1-1,1Z" fill="#292a2e"></path>
      <g>
        <g id="b_4_ha">
          <path d="m386.102,228.396l-1.005-17.668c.035-2.585-1.87-4.928-4.45-5.097-2.751-.181-5.058,1.978-5.094,4.7l-.801,49.328" fill="#ff9e85"></path>
          <g>
            <polygon points="410.77 193.228 413.139 201.831 368.074 214.85 365.705 206.246 410.77 193.228" fill="#000000"></polygon>
            <polygon points="410.77 193.228 413.139 201.831 368.074 214.85 365.705 206.246 410.77 193.228" fill="#fff" opacity=".5"></polygon>
            <polygon points="358.579 208.231 360.948 216.835 368.074 214.85 365.705 206.246 358.579 208.231" fill="#262626"></polygon>
            <path d="m410.77,193.228s2.629.639,4.982,1.219c1.866.46,3.558.883,3.626.92.07.038-1.194,1.359-2.603,2.796-1.711,1.747-3.636,3.668-3.636,3.668l-2.369-8.604Z" fill="#000000"></path>
            <path d="m410.77,193.228s2.629.639,4.982,1.219c1.866.46,3.558.883,3.626.92.07.038-1.194,1.359-2.603,2.796-1.711,1.747-3.636,3.668-3.636,3.668l-2.369-8.604Z" fill="#fff" opacity=".9"></path>
            <path d="m415.752,194.447c1.866.46,3.558.883,3.626.92.07.038-1.194,1.359-2.603,2.796l-1.023-3.716Z" fill="#000000"></path>
          </g>
          <path d="m374.752,259.659l15.407.645c9.789.41,18.847-5.16,22.898-14.081l8.935-19.769c.955-2.102.408-4.675-1.476-6.008-1.821-1.288-4.077-1.125-5.659.059-.041-.064-.089-.126-.162-.164-.137-.072-.291-.059-.418.009l1.655-3.644c1.069-2.354.264-5.264-2.03-6.454-2.115-1.097-4.624-.458-5.994,1.334-.018-.049-.045-.087-.079-.128l.68-1.498c.955-2.102.408-4.675-1.477-6.008-2.205-1.56-5.053-.998-6.56.938-.031-.012-.063-.022-.094-.027l-15.007,10.944" fill="#ff9e85"></path>
          <path d="m408.577,194.599c-.226,1.105-.924,2.046-1.869,2.812-3.388,2.746-5.99,6.657-6.686,7.608-2.88,4.011-5.226,10.501-5.886,12.664-.727,2.377-3.242,3.714-5.619,2.988-2.376-.727-3.713-3.245-2.988-5.619.115-.375,2.859-9.259,7.183-15.283,2.032-2.829,7.02-8.493,8.92-9.79,2.052-1.401,4.852-.874,6.254,1.178.716,1.047.928,2.289.692,3.441Z" fill="#ff9e85"></path>
          <path id="b_4_ha_sh" d="m400.76,205.358c-.006.05-.021.101-.046.149l-5.261,10.325c-.112.221-.382.309-.603.196-.221-.112-.307-.383-.196-.603l5.261-10.325c.112-.221.382-.309.603-.196.173.088.264.273.242.454Z" fill="#0a0a0a" opacity=".2"></path>
          <path id="b_4_ha_sh-2" data-name="b_4_ha_sh" d="m407.945,211.79c-.006.05-.021.099-.044.146l-4.072,8.147c-.111.222-.38.312-.602.201-.222-.111-.312-.38-.201-.602l4.072-8.147c.111-.222.38-.312.602-.201.175.087.267.273.245.456Z" fill="#0a0a0a" opacity=".2"></path>
          <path id="b_4_ha_sh-3" data-name="b_4_ha_sh" d="m414.931,220.794c-.006.053-.023.105-.049.155l-2.013,3.803c-.115.219-.387.302-.606.187-.221-.116-.305-.386-.187-.606l2.013-3.803c.115-.219.387-.302.606-.187.17.09.258.272.236.451Z" fill="#0a0a0a" opacity=".2"></path>
        </g>
        <path d="m367.079,227.702l-37.688,108.096-61.252-80.104-57.312,47.894,105.884,113.072c3.71,4.249,8.578,7.582,14.33,9.458,16.994,5.541,35.261-3.743,40.802-20.737l51.609-159.179-56.373-18.5Z" fill="#000000"></path>
        <path d="m32.6,459.769c-9.972,0-19.478-4.577-25.694-12.539-6.947-8.896-8.798-20.754-4.893-31.344,1.845-5.004,45.275-122.786,53.509-144.008l60.793,23.585c-4.63,11.933-21.404,57.162-34.88,93.597l22.389-2.433,7.047,64.826-74.743,8.126c-1.179.128-2.357.191-3.528.191Z" fill="#000000"></path>
        <polygon points="71.672 456.439 61.73 505.925 254.832 505.925 243.71 455.498 71.672 456.439" fill="#262626"></polygon>
        <path id="b_1_b" d="m113.424,235.285c-16.133,1.197-32.584,6.44-44.697,17.163-18.271,16.174-16.645,26.283-7.525,71.071,7.848,38.538,4.735,55.378,9.985,126.492.155,2.095.486,6.428.486,6.428l172.586-.286s16.17-94.349,25.1-137.866c6.789-33.083,24.623-73.245-50.57-81.339-.2-.022-60.507-4.991-105.365-1.663Z" fill="#000000"></path>
        <g>
          <path id="h_3_sk" d="m218.786,236.951c-.2-.026-5.677,20.588-48.428,17.38-29.596-2.217-36.812-22.362-37.49-22.362,3.191-.678,8.373-1.382,9.79-2.139,4.66-2.504,8.055-5.552,9.764-12.094,1.336-5.116,2.017-24.81,2.017-34.691l45.541,10.233c-.635,11.146-5.078,36.986,10.494,41.559,2.591.756,5.382,1.452,8.312,2.113Z" fill="#ff9e85"></path>
          <path d="m198.404,215.193c-17.954,1.416-41.016-6.164-45.397-30.117l-3.953-21.613c-4.381-23.953,4.649-45.672,27.202-49.796h0c22.553-4.125,42.962,12.21,47.342,36.163l1.75,9.568c1.681,9.191,5.088,53.267-26.944,55.795Z" fill="#ff9e85"></path>
          <path d="m215.051,193.201c-3.223-16.192-4.7-26.995-4.529-38.393,4.539-7.962,3.346-17.1,2.314-21.049,4.449,2.427,6.309,2.692,10.497,2.692,0,0-7.507-30.127-33.021-38.234-4.691-1.826-16.671-4.132-32.577-1.951-13.529,1.855-46.876,11.971-51.641,49.514h-.002s0,.011-.001.022c-.158,1.245-3.359,35.836-9.743,52.433-8.581,22.311-20.629,29.243-20.324,54.985.393,33.112,61.266,37.519,97.982,35.042,36.717-2.477,57.212-14.55,57.478-38.412.298-26.736-9.985-24.253-16.433-56.649Z" fill="#0a0a0a"></path>
          <path d="m215.061,179.627c-6.854,1.253-13.751-5.063-15.004-11.917-1.253-6.854,3.611-11.65,10.465-12.903l4.539,24.82Z" fill="#ff9e85"></path>
        </g>
        <path d="m261.371,361.814c-.027,0-.054-.003-.081-.008-.236-.044-.391-.272-.346-.508l7.236-45.332c.045-.236.275-.39.508-.346.236.044.391.272.346.508l-7.236,45.332c-.039.209-.222.354-.427.354Z" fill="#0c0c0c"></path>
        <path d="m71.672,456.874c-.232,0-.425-.183-.434-.418l-5.409-140.393c-.009-.24.177-.442.418-.452.229.011.442.177.451.418l5.409,140.393c.009.24-.177.442-.418.452h-.017Z" fill="#0c0c0c"></path>
      </g>
      <g>
        <path d="m445.306,274.213c-.29,0-.569-.126-.762-.352l-8.608-10.118c-.357-.421-.307-1.052.113-1.41.42-.357,1.051-.309,1.41.113l7.383,8.678,9.673-35.262c.12-.435.515-.735.965-.735h.006l91.565.498c.552.003.997.453.994,1.006-.003.55-.45.994-1,.994h-.006l-90.798-.494-9.971,36.347c-.099.357-.386.631-.748.712-.072.016-.145.023-.217.023Z" fill="#000000" opacity=".21"></path>
        <g fill="none" opacity=".2">
          <path d="m466.938,259.998c1.057-2.504,2.352-4.899,3.897-7.136.518-.751,1.224-2.089,2.309-1.659,1.003.397,1.908,1.557,2.657,2.304,1.533,1.527,3.067,3.16,4.985,4.209,1.928,1.055,4.094,1.339,6.228.808,2.209-.55,4.17-1.797,6.163-2.848,2.284-1.205,4.591-1.876,7.194-1.827,2.728.051,5.398.698,8.042,1.315,2.728.636,5.467,1.193,8.241,1.584,6.281.886,12.629,1.082,18.951.555,1.411-.118,1.423-2.334,0-2.215-5.864.489-11.77.375-17.607-.374-2.918-.374-5.802-.942-8.665-1.609-2.732-.636-5.486-1.301-8.298-1.447-2.681-.139-5.252.329-7.687,1.46-2.065.96-3.967,2.317-6.137,3.041-2.213.738-4.265.417-6.182-.896-1.846-1.264-3.292-3.039-4.927-4.546-.993-.915-2.127-1.906-3.567-1.846-1.302.054-2.248,1.01-2.982,1.986-1.846,2.458-3.336,5.196-4.53,8.024-.234.555-.162,1.18.397,1.516.462.277,1.283.153,1.516-.397h0Z" fill="#000000"></path>
        </g>
      </g>
      <g>
        <g>
          <rect x="583.127" y="473.259" width="111.51" height="32" transform="translate(1277.763 978.518) rotate(180)" fill="#000000"></rect>
          <rect x="583.127" y="473.259" width="111.51" height="32" transform="translate(1277.763 978.518) rotate(180)" fill="#fff" opacity=".69"></rect>
          <rect x="598.101" y="473.259" width="14.612" height="32" transform="translate(1210.814 978.518) rotate(180)" fill="#fff" opacity=".65"></rect>
          <rect x="619.634" y="479.342" width="60.754" height="18.963" transform="translate(1300.022 977.646) rotate(180)" fill="#fff" opacity=".65"></rect>
        </g>
        <g>
          <rect x="556.538" y="441.29" width="109.978" height="32" transform="translate(1223.055 914.579) rotate(-180)" fill="#000000"></rect>
          <rect x="556.538" y="441.29" width="109.978" height="32" transform="translate(1223.055 914.579) rotate(-180)" fill="#fff" opacity=".6"></rect>
          <rect x="570.591" y="447.372" width="59.919" height="18.963" transform="translate(1201.102 913.707) rotate(-180)" fill="#fff" opacity=".42"></rect>
          <rect x="637.337" y="441.29" width="14.411" height="32" transform="translate(1289.084 914.579) rotate(-180)" fill="#fff" opacity=".42"></rect>
        </g>
        <g>
          <rect x="471.144" y="436.479" width="111.51" height="32" transform="translate(1213.191 345.885) rotate(130.517)" fill="#000000"></rect>
          <rect x="471.144" y="436.479" width="111.51" height="32" transform="translate(1213.191 345.885) rotate(130.517)" fill="#fff" opacity=".78"></rect>
          <rect x="497.846" y="461.926" width="14.612" height="32" transform="translate(1196.661 404.398) rotate(130.517)" fill="#000000" opacity=".2"></rect>
          <rect x="503.421" y="434.253" width="60.754" height="18.963" transform="translate(1217.925 326.215) rotate(130.517)" fill="#000000" opacity=".2"></rect>
        </g>
      </g>
      <path d="m601.831,391.64l-63.722-110.369c-.034-.059-.078-.106-.123-.153-.183-.208-.444-.347-.744-.347s-.561.138-.744.347c-.044.047-.089.095-.123.153l-63.722,110.369c-.179.31-.179.69,0,1s.509.5.866.5h127.443c.357,0,.688-.19.866-.5s.179-.69,0-1Zm-65.588-.5h-37.346c.493-4.135-.533-8.249-2.966-11.665-2.444-3.434-6.019-5.756-10.113-6.633l50.425-87.339v105.637Zm2-105.637l50.338,87.189c-.103-.016-.208-.029-.316-.012-4.406.741-8.261,3.154-10.852,6.795-2.432,3.417-3.458,7.53-2.966,11.665h-36.205v-105.637Zm-53.473,89.155c7.835,1.331,13.169,8.66,12.114,16.482h-21.63l9.516-16.482Zm91.691,16.482c-1.055-7.83,4.289-15.167,12.136-16.487.36-.061.628-.314.751-.631l9.883,17.119h-22.771Z" fill="#000000" opacity=".21"></path>
      <g>
        <g fill="none" opacity=".2">
          <path d="m654.863,63.614h-235.239c-.553,0-1-.447-1-1s.447-1,1-1h235.239c.553,0,1,.447,1,1s-.447,1-1,1Z" fill="#000000"></path>
        </g>
        <g fill="none" opacity=".2">
          <path d="m408.669,198.367c-.553,0-1-.447-1-1v-125.429c0-.553.447-1,1-1s1,.447,1,1v125.429c0,.553-.447,1-1,1Z" fill="#000000"></path>
        </g>
        <path d="m655.863,173.969v-22.864c.006-.064.006-.126,0-.19v-26.163c.006-.064.006-.126,0-.191v-25.504c.006-.064.006-.126,0-.19v-26.689c.006-.065.006-.126,0-.191v-.048c0-.553-.447-1-1-1h-235.239c-.553,0-1,.447-1,1v23.446h0v101.983c0,.024.012.045.014.069.007.106.022.211.063.311.045.108.112.203.19.289.01.011.013.025.023.036,0,0,0,0,0,0,.092.093.203.167.326.218.123.051.252.077.383.077h108.323c.151.084.312.142.479.142s.329-.058.479-.142h27.607c.15.084.312.142.479.142s.329-.058.479-.142h24.686c.15.084.311.142.479.142s.328-.058.479-.142h24.398c.151.084.312.142.479.142s.329-.058.479-.142h22.78c.151.084.312.142.48.142s.329-.058.479-.142h22.653c.553,0,1-.447,1-1v-23.206c.006-.065.007-.127,0-.192Zm-45.301,22.398l43.301-42.941v20.25l-22.412,22.691h-20.889Zm-25.387,0l68.688-69.261v23.503l-46.141,45.757h-22.547Zm-25.641,0l94.329-94.959v22.858l-71.504,72.101h-22.824Zm-28.538,0l122.867-121.869v24.072l-97.147,97.797h-25.719Zm-27.773,0l125.146-123.429h24.228l-124.44,123.429h-24.934Zm-27.702,0l125.146-123.429h24.854l-125.146,123.429h-24.854Zm-26.394,0l125.146-123.429h23.545l-125.146,123.429h-23.545Zm-27.075,0l124.44-123.429h24.933l-125.146,123.429h-24.227Zm-1.428-100.577l22.571-22.852h20.892l-43.463,43.102v-20.25Zm0,23.066l46.303-45.918h22.545l-68.848,69.421v-23.503Zm0,26.343l71.665-72.261h22.824l-94.489,95.12v-22.858Zm0,25.696l97.308-97.957h25.721l-123.029,122.028v-24.071Zm19.758-97.957l-19.758,20.004v-20.004h19.758Zm193.882,123.429l19.599-19.844v19.844h-19.599Z" fill="#000000"></path>
      </g>
    </g>
  </g>
</svg>